<?xml version="1.0" encoding="utf-8"?>
<!-- Generator: Adobe Illustrator 26.0.2, SVG Export Plug-In . SVG Version: 6.00 Build 0)  -->
<svg version="1.1" id="Layer_1" xmlns="http://www.w3.org/2000/svg" xmlns:xlink="http://www.w3.org/1999/xlink" x="0px" y="0px"
	 viewBox="0 0 1080 227.2" style="enable-background:new 0 0 1080 227.2;" xml:space="preserve">
<style type="text/css">
	.st0{stroke:#000000;stroke-width:60;stroke-miterlimit:10;}
	.st1{stroke:#E63946;stroke-width:40;stroke-miterlimit:10;}
	.st2{stroke:#000000;stroke-width:35;stroke-miterlimit:10;}
	.st3{stroke:#FCFCFC;stroke-width:25;stroke-miterlimit:10;}
	.st4{stroke:#000000;stroke-width:22;stroke-miterlimit:10;}
	.st5{fill:#FFFFFF;}
</style>
<g>
	<g>
		<path class="st0" d="M179.5,122.6c0,9.9-8.1,18-18,18H86.1c-9.9,0-18-8.1-18-18c0-9.9,8.1-18,18-18h75.5
			C171.5,104.6,179.5,112.7,179.5,122.6z M127.4,122.6c0-3.7-3-6.7-6.7-6.7H92.7c-3.7,0-6.7,3-6.7,6.7c0,3.7,3,6.7,6.7,6.7h28.1
			C124.4,129.3,127.4,126.3,127.4,122.6z M143.6,122.6c0-3.7-3-6.7-6.7-6.7c-3.7,0-6.7,3-6.7,6.7c0,3.7,3,6.7,6.7,6.7
			C140.6,129.3,143.6,126.3,143.6,122.6z"/>
		<path class="st0" d="M318.6,123.2c-0.2,9.9-8.7,17.7-18.6,17.7h-55.2c-2.3,0-4.5-1.7-4.7-4c-0.3-2.7,1.8-4.9,4.5-4.9
			c8.4-1.3,16.4-4.2,23.6-8.6l2.4-1.4c3.8-2.3,2.2-8.2-2.3-8.2h-26.2c-4.3,0-8.2,2.6-9.8,6.6l-0.3,0.8c-3.5,8.2-11.9,13.9-21.6,13.1
			c-9.9-0.8-18.2-8.5-19.5-18.4c-1-6.9,1.4-13.3,5.7-17.8l0,0l27.3-30.4l1.5-1.7c2.9-3.4,7.3-5.5,12.3-4.9c6.2,0.7,11.2,5.8,12,12
			c0.4,2.8-1.1,7.7-2.2,10l0.9-2.2l-7.3,18c-1.2,2.9,1,6,4.1,6h55.5C310.7,104.9,318.8,113.1,318.6,123.2z"/>
		<path class="st0" d="M448.2,137.6c0,5.3-4.3,9.6-9.6,9.7l-2.3,0h-88.5c-10.6,0-19.1-9.2-17.9-20.1c0.9-8.1,7.4-14.7,15.5-15.8
			c7-0.9,13.3,2.2,17,7.4c0,0,0,0,0,0l12,15.5c2,2.6,5.1,4.1,8.3,4.1h21c3.5,0,5.6-3.9,3.6-6.9l-1.3-2c-0.1-0.2-0.3-0.4-0.4-0.6
			l-0.1-0.1l0,0c-1.3-2.1-1.8-4.7-1.1-7.5c0.9-3.6,3.9-6.4,7.5-7.1c2.4-0.5,4.7,0,6.6,1l24.3,13.6c0.1,0.1,0.3,0.2,0.4,0.2l0.2,0.1
			l0,0C446.3,131.1,448.2,134.1,448.2,137.6z M462,106c0.2,10.1-7.9,18.3-18,18.3c-6,0-11.4-3-14.6-7.5c0,0,0,0,0,0l-12-15.5
			c-2-2.6-5.1-4.1-8.3-4.1h-21c-3.5,0-5.6,3.9-3.6,6.9l1.3,2c0.1,0.2,0.3,0.4,0.4,0.6l0.1,0.1l0,0c1.3,2.1,1.8,4.7,1.1,7.5
			c-0.9,3.6-3.9,6.4-7.5,7.1c-2.4,0.5-4.7,0-6.6-1l-24.3-13.6c-0.1-0.1-0.3-0.2-0.4-0.2l-0.2-0.1l0,0c-2.8-1.7-4.6-4.8-4.6-8.3
			c0-5.3,4.3-9.6,9.6-9.7l2.8,0h87.4C453.3,88.4,461.8,96.1,462,106z"/>
		<path class="st0" d="M587.9,136.4c0,2.4-2,4.4-4.4,4.4h-91.7c-9.9,0-18.4-7.8-18.6-17.7c-0.2-10.1,7.9-18.3,18-18.3h55.8
			c2.3,0,4.5,1.7,4.7,4c0.3,2.7-1.8,4.9-4.5,4.9c-8.4,1.3-16.4,4.2-23.6,8.6l-2.4,1.4c-3.8,2.3-2.2,8.2,2.3,8.2h60
			C586,132,587.9,134,587.9,136.4z"/>
		<path class="st0" d="M727.1,123.1c-0.2,9.9-7.9,17.6-17.8,17.6l-59.3,0c-1.7,0-2.8,1.7-2.2,3.3c1.7,5.3,0.1,13-5.2,17.8
			c-6.9,6.1-17.1,5.7-23.4-0.5l-13.5-13.1c-0.1-0.1-0.2-0.2-0.3-0.3l-0.1-0.1l0,0c-4.4-4.5-6.8-10.9-5.9-17.9
			c1.3-9.5,9-17.2,18.5-18.4c10.6-1.3,19.6,4.1,22.7,13.4l0.4,1.1c1.3,3.6,4.7,6,8.5,6h24.5c3.3,0,6.3-1.5,8.3-4.1l11.7-15.1
			c0,0,0.4-0.4,0.4-0.4c3.3-4.6,8.6-7.5,14.6-7.5C719.2,104.8,727.3,113,727.1,123.1z"/>
		<path class="st0" d="M878.8,131.4c-0.9,8.1-7.4,14.7-15.5,15.8c-7,0.9-12.3-0.9-16-6.1c0,0-1.1-1.3-1.1-1.3l-12-15.5
			c-2-2.6-5.1-4.1-8.3-4.1h-26.9c-4.4,0-8.4,2.7-9.9,6.9l-8.5,23l-0.6,1.5c-3.1,9.3-12.5,15.8-23.1,14.4
			c-9.5-1.2-17.3-8.9-18.5-18.4c-0.9-7,1.5-13.4,5.9-17.9l0,0l0.1-0.1c0.1-0.1,0.2-0.2,0.3-0.3l13.5-13.1c3.3-3.2,5.9-4.9,10.2-4.9
			h1.7H861C871.6,111.3,880.1,120.6,878.8,131.4z"/>
		<path class="st0" d="M1011.9,122.8c-0.2,9.9-8.7,17.7-18.6,17.7h-55.2c-2.3,0-4.5-1.7-4.7-4c-0.3-2.7,1.8-4.9,4.5-4.9
			c8.4-1.3,16.4-4.2,23.6-8.6l2.4-1.4c3.8-2.3,2.2-8.2-2.3-8.2h-39.1c-4.4,0-7,5-4.4,8.5l0,0c3.6,3.2,5.6,8.1,4.8,13.4
			c-1,6.6-6.4,11.9-13,12.7c-7.2,0.9-13.6-3.3-16-9.6l0.5,1.1l-0.6-1.4c-0.2-0.5-0.4-1.1-0.5-1.6l-2.3-7.6
			c-3.7-12.2,5.4-24.6,18.2-24.6h84.7C1004,104.5,1012.1,112.7,1011.9,122.8z M942,146.4c1.7,4.1-2.7,9.9-9.8,12.8
			c-7.1,2.9-14.3,2-16-2.1c-1.7-4.1,2.7-9.9,9.8-12.8C933.1,141.3,940.3,142.3,942,146.4z"/>
	</g>
	<g>
		<path class="st1" d="M179.5,122.6c0,9.9-8.1,18-18,18H86.1c-9.9,0-18-8.1-18-18c0-9.9,8.1-18,18-18h75.5
			C171.5,104.6,179.5,112.7,179.5,122.6z M127.4,122.6c0-3.7-3-6.7-6.7-6.7H92.7c-3.7,0-6.7,3-6.7,6.7c0,3.7,3,6.7,6.7,6.7h28.1
			C124.4,129.3,127.4,126.3,127.4,122.6z M143.6,122.6c0-3.7-3-6.7-6.7-6.7c-3.7,0-6.7,3-6.7,6.7c0,3.7,3,6.7,6.7,6.7
			C140.6,129.3,143.6,126.3,143.6,122.6z"/>
		<path class="st1" d="M318.6,123.2c-0.2,9.9-8.7,17.7-18.6,17.7h-55.2c-2.3,0-4.5-1.7-4.7-4c-0.3-2.7,1.8-4.9,4.5-4.9
			c8.4-1.3,16.4-4.2,23.6-8.6l2.4-1.4c3.8-2.3,2.2-8.2-2.3-8.2h-26.2c-4.3,0-8.2,2.6-9.8,6.6l-0.3,0.8c-3.5,8.2-11.9,13.9-21.6,13.1
			c-9.9-0.8-18.2-8.5-19.5-18.4c-1-6.9,1.4-13.3,5.7-17.8l0,0l27.3-30.4l1.5-1.7c2.9-3.4,7.3-5.5,12.3-4.9c6.2,0.7,11.2,5.8,12,12
			c0.4,2.8-1.1,7.7-2.2,10l0.9-2.2l-7.3,18c-1.2,2.9,1,6,4.1,6h55.5C310.7,104.9,318.8,113.1,318.6,123.2z"/>
		<path class="st1" d="M448.2,137.6c0,5.3-4.3,9.6-9.6,9.7l-2.3,0h-88.5c-10.6,0-19.1-9.2-17.9-20.1c0.9-8.1,7.4-14.7,15.5-15.8
			c7-0.9,13.3,2.2,17,7.4c0,0,0,0,0,0l12,15.5c2,2.6,5.1,4.1,8.3,4.1h21c3.5,0,5.6-3.9,3.6-6.9l-1.3-2c-0.1-0.2-0.3-0.4-0.4-0.6
			l-0.1-0.1l0,0c-1.3-2.1-1.8-4.7-1.1-7.5c0.9-3.6,3.9-6.4,7.5-7.1c2.4-0.5,4.7,0,6.6,1l24.3,13.6c0.1,0.1,0.3,0.2,0.4,0.2l0.2,0.1
			l0,0C446.3,131.1,448.2,134.1,448.2,137.6z M462,106c0.2,10.1-7.9,18.3-18,18.3c-6,0-11.4-3-14.6-7.5c0,0,0,0,0,0l-12-15.5
			c-2-2.6-5.1-4.1-8.3-4.1h-21c-3.5,0-5.6,3.9-3.6,6.9l1.3,2c0.1,0.2,0.3,0.4,0.4,0.6l0.1,0.1l0,0c1.3,2.1,1.8,4.7,1.1,7.5
			c-0.9,3.6-3.9,6.4-7.5,7.1c-2.4,0.5-4.7,0-6.6-1l-24.3-13.6c-0.1-0.1-0.3-0.2-0.4-0.2l-0.2-0.1l0,0c-2.8-1.7-4.6-4.8-4.6-8.3
			c0-5.3,4.3-9.6,9.6-9.7l2.8,0h87.4C453.3,88.4,461.8,96.1,462,106z"/>
		<path class="st1" d="M587.9,136.4c0,2.4-2,4.4-4.4,4.4h-91.7c-9.9,0-18.4-7.8-18.6-17.7c-0.2-10.1,7.9-18.3,18-18.3h55.8
			c2.3,0,4.5,1.7,4.7,4c0.3,2.7-1.8,4.9-4.5,4.9c-8.4,1.3-16.4,4.2-23.6,8.6l-2.4,1.4c-3.8,2.3-2.2,8.2,2.3,8.2h60
			C586,132,587.9,134,587.9,136.4z"/>
		<path class="st1" d="M727.1,123.1c-0.2,9.9-7.9,17.6-17.8,17.6l-59.3,0c-1.7,0-2.8,1.7-2.2,3.3c1.7,5.3,0.1,13-5.2,17.8
			c-6.9,6.1-17.1,5.7-23.4-0.5l-13.5-13.1c-0.1-0.1-0.2-0.2-0.3-0.3l-0.1-0.1l0,0c-4.4-4.5-6.8-10.9-5.9-17.9
			c1.3-9.5,9-17.2,18.5-18.4c10.6-1.3,19.6,4.1,22.7,13.4l0.4,1.1c1.3,3.6,4.7,6,8.5,6h24.5c3.3,0,6.3-1.5,8.3-4.1l11.7-15.1
			c0,0,0.4-0.4,0.4-0.4c3.3-4.6,8.6-7.5,14.6-7.5C719.2,104.8,727.3,113,727.1,123.1z"/>
		<path class="st1" d="M878.8,131.4c-0.9,8.1-7.4,14.7-15.5,15.8c-7,0.9-12.3-0.9-16-6.1c0,0-1.1-1.3-1.1-1.3l-12-15.5
			c-2-2.6-5.1-4.1-8.3-4.1h-26.9c-4.4,0-8.4,2.7-9.9,6.9l-8.5,23l-0.6,1.5c-3.1,9.3-12.5,15.8-23.1,14.4
			c-9.5-1.2-17.3-8.9-18.5-18.4c-0.9-7,1.5-13.4,5.9-17.9l0,0l0.1-0.1c0.1-0.1,0.2-0.2,0.3-0.3l13.5-13.1c3.3-3.2,5.9-4.9,10.2-4.9
			h1.7H861C871.6,111.3,880.1,120.6,878.8,131.4z"/>
		<path class="st1" d="M1011.9,122.8c-0.2,9.9-8.7,17.7-18.6,17.7h-55.2c-2.3,0-4.5-1.7-4.7-4c-0.3-2.7,1.8-4.9,4.5-4.9
			c8.4-1.3,16.4-4.2,23.6-8.6l2.4-1.4c3.8-2.3,2.2-8.2-2.3-8.2h-39.1c-4.4,0-7,5-4.4,8.5l0,0c3.6,3.2,5.6,8.1,4.8,13.4
			c-1,6.6-6.4,11.9-13,12.7c-7.2,0.9-13.6-3.3-16-9.6l0.5,1.1l-0.6-1.4c-0.2-0.5-0.4-1.1-0.5-1.6l-2.3-7.6
			c-3.7-12.2,5.4-24.6,18.2-24.6h84.7C1004,104.5,1012.1,112.7,1011.9,122.8z M942,146.4c1.7,4.1-2.7,9.9-9.8,12.8
			c-7.1,2.9-14.3,2-16-2.1c-1.7-4.1,2.7-9.9,9.8-12.8C933.1,141.3,940.3,142.3,942,146.4z"/>
	</g>
	<g>
		<path class="st2" d="M179.5,122.6c0,9.9-8.1,18-18,18H86.1c-9.9,0-18-8.1-18-18c0-9.9,8.1-18,18-18h75.5
			C171.5,104.6,179.5,112.7,179.5,122.6z M127.4,122.6c0-3.7-3-6.7-6.7-6.7H92.7c-3.7,0-6.7,3-6.7,6.7c0,3.7,3,6.7,6.7,6.7h28.1
			C124.4,129.3,127.4,126.3,127.4,122.6z M143.6,122.6c0-3.7-3-6.7-6.7-6.7c-3.7,0-6.7,3-6.7,6.7c0,3.7,3,6.7,6.7,6.7
			C140.6,129.3,143.6,126.3,143.6,122.6z"/>
		<path class="st2" d="M318.6,123.2c-0.2,9.9-8.7,17.7-18.6,17.7h-55.2c-2.3,0-4.5-1.7-4.7-4c-0.3-2.7,1.8-4.9,4.5-4.9
			c8.4-1.3,16.4-4.2,23.6-8.6l2.4-1.4c3.8-2.3,2.2-8.2-2.3-8.2h-26.2c-4.3,0-8.2,2.6-9.8,6.6l-0.3,0.8c-3.5,8.2-11.9,13.9-21.6,13.1
			c-9.9-0.8-18.2-8.5-19.5-18.4c-1-6.9,1.4-13.3,5.7-17.8l0,0l27.3-30.4l1.5-1.7c2.9-3.4,7.3-5.5,12.3-4.9c6.2,0.7,11.2,5.8,12,12
			c0.4,2.8-1.1,7.7-2.2,10l0.9-2.2l-7.3,18c-1.2,2.9,1,6,4.1,6h55.5C310.7,104.9,318.8,113.1,318.6,123.2z"/>
		<path class="st2" d="M448.2,137.6c0,5.3-4.3,9.6-9.6,9.7l-2.3,0h-88.5c-10.6,0-19.1-9.2-17.9-20.1c0.9-8.1,7.4-14.7,15.5-15.8
			c7-0.9,13.3,2.2,17,7.4c0,0,0,0,0,0l12,15.5c2,2.6,5.1,4.1,8.3,4.1h21c3.5,0,5.6-3.9,3.6-6.9l-1.3-2c-0.1-0.2-0.3-0.4-0.4-0.6
			l-0.1-0.1l0,0c-1.3-2.1-1.8-4.7-1.1-7.5c0.9-3.6,3.9-6.4,7.5-7.1c2.4-0.5,4.7,0,6.6,1l24.3,13.6c0.1,0.1,0.3,0.2,0.4,0.2l0.2,0.1
			l0,0C446.3,131.1,448.2,134.1,448.2,137.6z M462,106c0.2,10.1-7.9,18.3-18,18.3c-6,0-11.4-3-14.6-7.5c0,0,0,0,0,0l-12-15.5
			c-2-2.6-5.1-4.1-8.3-4.1h-21c-3.5,0-5.6,3.9-3.6,6.9l1.3,2c0.1,0.2,0.3,0.4,0.4,0.6l0.1,0.1l0,0c1.3,2.1,1.8,4.7,1.1,7.5
			c-0.9,3.6-3.9,6.4-7.5,7.1c-2.4,0.5-4.7,0-6.6-1l-24.3-13.6c-0.1-0.1-0.3-0.2-0.4-0.2l-0.2-0.1l0,0c-2.8-1.7-4.6-4.8-4.6-8.3
			c0-5.3,4.3-9.6,9.6-9.7l2.8,0h87.4C453.3,88.4,461.8,96.1,462,106z"/>
		<path class="st2" d="M587.9,136.4c0,2.4-2,4.4-4.4,4.4h-91.7c-9.9,0-18.4-7.8-18.6-17.7c-0.2-10.1,7.9-18.3,18-18.3h55.8
			c2.3,0,4.5,1.7,4.7,4c0.3,2.7-1.8,4.9-4.5,4.9c-8.4,1.3-16.4,4.2-23.6,8.6l-2.4,1.4c-3.8,2.3-2.2,8.2,2.3,8.2h60
			C586,132,587.9,134,587.9,136.4z"/>
		<path class="st2" d="M727.1,123.1c-0.2,9.9-7.9,17.6-17.8,17.6l-59.3,0c-1.7,0-2.8,1.7-2.2,3.3c1.7,5.3,0.1,13-5.2,17.8
			c-6.9,6.1-17.1,5.7-23.4-0.5l-13.5-13.1c-0.1-0.1-0.2-0.2-0.3-0.3l-0.1-0.1l0,0c-4.4-4.5-6.8-10.9-5.9-17.9
			c1.3-9.5,9-17.2,18.5-18.4c10.6-1.3,19.6,4.1,22.7,13.4l0.4,1.1c1.3,3.6,4.7,6,8.5,6h24.5c3.3,0,6.3-1.5,8.3-4.1l11.7-15.1
			c0,0,0.4-0.4,0.4-0.4c3.3-4.6,8.6-7.5,14.6-7.5C719.2,104.8,727.3,113,727.1,123.1z"/>
		<path class="st2" d="M878.8,131.4c-0.9,8.1-7.4,14.7-15.5,15.8c-7,0.9-12.3-0.9-16-6.1c0,0-1.1-1.3-1.1-1.3l-12-15.5
			c-2-2.6-5.1-4.1-8.3-4.1h-26.9c-4.4,0-8.4,2.7-9.9,6.9l-8.5,23l-0.6,1.5c-3.1,9.3-12.5,15.8-23.1,14.4
			c-9.5-1.2-17.3-8.9-18.5-18.4c-0.9-7,1.5-13.4,5.9-17.9l0,0l0.1-0.1c0.1-0.1,0.2-0.2,0.3-0.3l13.5-13.1c3.3-3.2,5.9-4.9,10.2-4.9
			h1.7H861C871.6,111.3,880.1,120.6,878.8,131.4z"/>
		<path class="st2" d="M1011.9,122.8c-0.2,9.9-8.7,17.7-18.6,17.7h-55.2c-2.3,0-4.5-1.7-4.7-4c-0.3-2.7,1.8-4.9,4.5-4.9
			c8.4-1.3,16.4-4.2,23.6-8.6l2.4-1.4c3.8-2.3,2.2-8.2-2.3-8.2h-39.1c-4.4,0-7,5-4.4,8.5l0,0c3.6,3.2,5.6,8.1,4.8,13.4
			c-1,6.6-6.4,11.9-13,12.7c-7.2,0.9-13.6-3.3-16-9.6l0.5,1.1l-0.6-1.4c-0.2-0.5-0.4-1.1-0.5-1.6l-2.3-7.6
			c-3.7-12.2,5.4-24.6,18.2-24.6h84.7C1004,104.5,1012.1,112.7,1011.9,122.8z M942,146.4c1.7,4.1-2.7,9.9-9.8,12.8
			c-7.1,2.9-14.3,2-16-2.1c-1.7-4.1,2.7-9.9,9.8-12.8C933.1,141.3,940.3,142.3,942,146.4z"/>
	</g>
	<g>
		<path class="st3" d="M179.5,122.6c0,9.9-8.1,18-18,18H86.1c-9.9,0-18-8.1-18-18c0-9.9,8.1-18,18-18h75.5
			C171.5,104.6,179.5,112.7,179.5,122.6z M127.4,122.6c0-3.7-3-6.7-6.7-6.7H92.7c-3.7,0-6.7,3-6.7,6.7c0,3.7,3,6.7,6.7,6.7h28.1
			C124.4,129.3,127.4,126.3,127.4,122.6z M143.6,122.6c0-3.7-3-6.7-6.7-6.7c-3.7,0-6.7,3-6.7,6.7c0,3.7,3,6.7,6.7,6.7
			C140.6,129.3,143.6,126.3,143.6,122.6z"/>
		<path class="st3" d="M318.6,123.2c-0.2,9.9-8.7,17.7-18.6,17.7h-55.2c-2.3,0-4.5-1.7-4.7-4c-0.3-2.7,1.8-4.9,4.5-4.9
			c8.4-1.3,16.4-4.2,23.6-8.6l2.4-1.4c3.8-2.3,2.2-8.2-2.3-8.2h-26.2c-4.3,0-8.2,2.6-9.8,6.6l-0.3,0.8c-3.5,8.2-11.9,13.9-21.6,13.1
			c-9.9-0.8-18.2-8.5-19.5-18.4c-1-6.9,1.4-13.3,5.7-17.8l0,0l27.3-30.4l1.5-1.7c2.9-3.4,7.3-5.5,12.3-4.9c6.2,0.7,11.2,5.8,12,12
			c0.4,2.8-1.1,7.7-2.2,10l0.9-2.2l-7.3,18c-1.2,2.9,1,6,4.1,6h55.5C310.7,104.9,318.8,113.1,318.6,123.2z"/>
		<path class="st3" d="M448.2,137.6c0,5.3-4.3,9.6-9.6,9.7l-2.3,0h-88.5c-10.6,0-19.1-9.2-17.9-20.1c0.9-8.1,7.4-14.7,15.5-15.8
			c7-0.9,13.3,2.2,17,7.4c0,0,0,0,0,0l12,15.5c2,2.6,5.1,4.1,8.3,4.1h21c3.5,0,5.6-3.9,3.6-6.9l-1.3-2c-0.1-0.2-0.3-0.4-0.4-0.6
			l-0.1-0.1l0,0c-1.3-2.1-1.8-4.7-1.1-7.5c0.9-3.6,3.9-6.4,7.5-7.1c2.4-0.5,4.7,0,6.6,1l24.3,13.6c0.1,0.1,0.3,0.2,0.4,0.2l0.2,0.1
			l0,0C446.3,131.1,448.2,134.1,448.2,137.6z M462,106c0.2,10.1-7.9,18.3-18,18.3c-6,0-11.4-3-14.6-7.5c0,0,0,0,0,0l-12-15.5
			c-2-2.6-5.1-4.1-8.3-4.1h-21c-3.5,0-5.6,3.9-3.6,6.9l1.3,2c0.1,0.2,0.3,0.4,0.4,0.6l0.1,0.1l0,0c1.3,2.1,1.8,4.7,1.1,7.5
			c-0.9,3.6-3.9,6.4-7.5,7.1c-2.4,0.5-4.7,0-6.6-1l-24.3-13.6c-0.1-0.1-0.3-0.2-0.4-0.2l-0.2-0.1l0,0c-2.8-1.7-4.6-4.8-4.6-8.3
			c0-5.3,4.3-9.6,9.6-9.7l2.8,0h87.4C453.3,88.4,461.8,96.1,462,106z"/>
		<path class="st3" d="M587.9,136.4c0,2.4-2,4.4-4.4,4.4h-91.7c-9.9,0-18.4-7.8-18.6-17.7c-0.2-10.1,7.9-18.3,18-18.3h55.8
			c2.3,0,4.5,1.7,4.7,4c0.3,2.7-1.8,4.9-4.5,4.9c-8.4,1.3-16.4,4.2-23.6,8.6l-2.4,1.4c-3.8,2.3-2.2,8.2,2.3,8.2h60
			C586,132,587.9,134,587.9,136.4z"/>
		<path class="st3" d="M727.1,123.1c-0.2,9.9-7.9,17.6-17.8,17.6l-59.3,0c-1.7,0-2.8,1.7-2.2,3.3c1.7,5.3,0.1,13-5.2,17.8
			c-6.9,6.1-17.1,5.7-23.4-0.5l-13.5-13.1c-0.1-0.1-0.2-0.2-0.3-0.3l-0.1-0.1l0,0c-4.4-4.5-6.8-10.9-5.9-17.9
			c1.3-9.5,9-17.2,18.5-18.4c10.6-1.3,19.6,4.1,22.7,13.4l0.4,1.1c1.3,3.6,4.7,6,8.5,6h24.5c3.3,0,6.3-1.5,8.3-4.1l11.7-15.1
			c0,0,0.4-0.4,0.4-0.4c3.3-4.6,8.6-7.5,14.6-7.5C719.2,104.8,727.3,113,727.1,123.1z"/>
		<path class="st3" d="M878.8,131.4c-0.9,8.1-7.4,14.7-15.5,15.8c-7,0.9-12.3-0.9-16-6.1c0,0-1.1-1.3-1.1-1.3l-12-15.5
			c-2-2.6-5.1-4.1-8.3-4.1h-26.9c-4.4,0-8.4,2.7-9.9,6.9l-8.5,23l-0.6,1.5c-3.1,9.3-12.5,15.8-23.1,14.4
			c-9.5-1.2-17.3-8.9-18.5-18.4c-0.9-7,1.5-13.4,5.9-17.9l0,0l0.1-0.1c0.1-0.1,0.2-0.2,0.3-0.3l13.5-13.1c3.3-3.2,5.9-4.9,10.2-4.9
			h1.7H861C871.6,111.3,880.1,120.6,878.8,131.4z"/>
		<path class="st3" d="M1011.9,122.8c-0.2,9.9-8.7,17.7-18.6,17.7h-55.2c-2.3,0-4.5-1.7-4.7-4c-0.3-2.7,1.8-4.9,4.5-4.9
			c8.4-1.3,16.4-4.2,23.6-8.6l2.4-1.4c3.8-2.3,2.2-8.2-2.3-8.2h-39.1c-4.4,0-7,5-4.4,8.5l0,0c3.6,3.2,5.6,8.1,4.8,13.4
			c-1,6.6-6.4,11.9-13,12.7c-7.2,0.9-13.6-3.3-16-9.6l0.5,1.1l-0.6-1.4c-0.2-0.5-0.4-1.1-0.5-1.6l-2.3-7.6
			c-3.7-12.2,5.4-24.6,18.2-24.6h84.7C1004,104.5,1012.1,112.7,1011.9,122.8z M942,146.4c1.7,4.1-2.7,9.9-9.8,12.8
			c-7.1,2.9-14.3,2-16-2.1c-1.7-4.1,2.7-9.9,9.8-12.8C933.1,141.3,940.3,142.3,942,146.4z"/>
	</g>
	<g>
		<path class="st4" d="M179.5,122.6c0,9.9-8.1,18-18,18H86.1c-9.9,0-18-8.1-18-18c0-9.9,8.1-18,18-18h75.5
			C171.5,104.6,179.5,112.7,179.5,122.6z M127.4,122.6c0-3.7-3-6.7-6.7-6.7H92.7c-3.7,0-6.7,3-6.7,6.7c0,3.7,3,6.7,6.7,6.7h28.1
			C124.4,129.3,127.4,126.3,127.4,122.6z M143.6,122.6c0-3.7-3-6.7-6.7-6.7c-3.7,0-6.7,3-6.7,6.7c0,3.7,3,6.7,6.7,6.7
			C140.6,129.3,143.6,126.3,143.6,122.6z"/>
		<path class="st4" d="M318.6,123.2c-0.2,9.9-8.7,17.7-18.6,17.7h-55.2c-2.3,0-4.5-1.7-4.7-4c-0.3-2.7,1.8-4.9,4.5-4.9
			c8.4-1.3,16.4-4.2,23.6-8.6l2.4-1.4c3.8-2.3,2.2-8.2-2.3-8.2h-26.2c-4.3,0-8.2,2.6-9.8,6.6l-0.3,0.8c-3.5,8.2-11.9,13.9-21.6,13.1
			c-9.9-0.8-18.2-8.5-19.5-18.4c-1-6.9,1.4-13.3,5.7-17.8l0,0l27.3-30.4l1.5-1.7c2.9-3.4,7.3-5.5,12.3-4.9c6.2,0.7,11.2,5.8,12,12
			c0.4,2.8-1.1,7.7-2.2,10l0.9-2.2l-7.3,18c-1.2,2.9,1,6,4.1,6h55.5C310.7,104.9,318.8,113.1,318.6,123.2z"/>
		<path class="st4" d="M448.2,137.6c0,5.3-4.3,9.6-9.6,9.7l-2.3,0h-88.5c-10.6,0-19.1-9.2-17.9-20.1c0.9-8.1,7.4-14.7,15.5-15.8
			c7-0.9,13.3,2.2,17,7.4c0,0,0,0,0,0l12,15.5c2,2.6,5.1,4.1,8.3,4.1h21c3.5,0,5.6-3.9,3.6-6.9l-1.3-2c-0.1-0.2-0.3-0.4-0.4-0.6
			l-0.1-0.1l0,0c-1.3-2.1-1.8-4.7-1.1-7.5c0.9-3.6,3.9-6.4,7.5-7.1c2.4-0.5,4.7,0,6.6,1l24.3,13.6c0.1,0.1,0.3,0.2,0.4,0.2l0.2,0.1
			l0,0C446.3,131.1,448.2,134.1,448.2,137.6z M462,106c0.2,10.1-7.9,18.3-18,18.3c-6,0-11.4-3-14.6-7.5c0,0,0,0,0,0l-12-15.5
			c-2-2.6-5.1-4.1-8.3-4.1h-21c-3.5,0-5.6,3.9-3.6,6.9l1.3,2c0.1,0.2,0.3,0.4,0.4,0.6l0.1,0.1l0,0c1.3,2.1,1.8,4.7,1.1,7.5
			c-0.9,3.6-3.9,6.4-7.5,7.1c-2.4,0.5-4.7,0-6.6-1l-24.3-13.6c-0.1-0.1-0.3-0.2-0.4-0.2l-0.2-0.1l0,0c-2.8-1.7-4.6-4.8-4.6-8.3
			c0-5.3,4.3-9.6,9.6-9.7l2.8,0h87.4C453.3,88.4,461.8,96.1,462,106z"/>
		<path class="st4" d="M587.9,136.4c0,2.4-2,4.4-4.4,4.4h-91.7c-9.9,0-18.4-7.8-18.6-17.7c-0.2-10.1,7.9-18.3,18-18.3h55.8
			c2.3,0,4.5,1.7,4.7,4c0.3,2.7-1.8,4.9-4.5,4.9c-8.4,1.3-16.4,4.2-23.6,8.6l-2.4,1.4c-3.8,2.3-2.2,8.2,2.3,8.2h60
			C586,132,587.9,134,587.9,136.4z"/>
		<path class="st4" d="M727.1,123.1c-0.2,9.9-7.9,17.6-17.8,17.6l-59.3,0c-1.7,0-2.8,1.7-2.2,3.3c1.7,5.3,0.1,13-5.2,17.8
			c-6.9,6.1-17.1,5.7-23.4-0.5l-13.5-13.1c-0.1-0.1-0.2-0.2-0.3-0.3l-0.1-0.1l0,0c-4.4-4.5-6.8-10.9-5.9-17.9
			c1.3-9.5,9-17.2,18.5-18.4c10.6-1.3,19.6,4.1,22.7,13.4l0.4,1.1c1.3,3.6,4.7,6,8.5,6h24.5c3.3,0,6.3-1.5,8.3-4.1l11.7-15.1
			c0,0,0.4-0.4,0.4-0.4c3.3-4.6,8.6-7.5,14.6-7.5C719.2,104.8,727.3,113,727.1,123.1z"/>
		<path class="st4" d="M878.8,131.4c-0.9,8.1-7.4,14.7-15.5,15.8c-7,0.9-12.3-0.9-16-6.1c0,0-1.1-1.3-1.1-1.3l-12-15.5
			c-2-2.6-5.1-4.1-8.3-4.1h-26.9c-4.4,0-8.4,2.7-9.9,6.9l-8.5,23l-0.6,1.5c-3.1,9.3-12.5,15.8-23.1,14.4
			c-9.5-1.2-17.3-8.9-18.5-18.4c-0.9-7,1.5-13.4,5.9-17.9l0,0l0.1-0.1c0.1-0.1,0.2-0.2,0.3-0.3l13.5-13.1c3.3-3.2,5.9-4.9,10.2-4.9
			h1.7H861C871.6,111.3,880.1,120.6,878.8,131.4z"/>
		<path class="st4" d="M1011.9,122.8c-0.2,9.9-8.7,17.7-18.6,17.7h-55.2c-2.3,0-4.5-1.7-4.7-4c-0.3-2.7,1.8-4.9,4.5-4.9
			c8.4-1.3,16.4-4.2,23.6-8.6l2.4-1.4c3.8-2.3,2.2-8.2-2.3-8.2h-39.1c-4.4,0-7,5-4.4,8.5l0,0c3.6,3.2,5.6,8.1,4.8,13.4
			c-1,6.6-6.4,11.9-13,12.7c-7.2,0.9-13.6-3.3-16-9.6l0.5,1.1l-0.6-1.4c-0.2-0.5-0.4-1.1-0.5-1.6l-2.3-7.6
			c-3.7-12.2,5.4-24.6,18.2-24.6h84.7C1004,104.5,1012.1,112.7,1011.9,122.8z M942,146.4c1.7,4.1-2.7,9.9-9.8,12.8
			c-7.1,2.9-14.3,2-16-2.1c-1.7-4.1,2.7-9.9,9.8-12.8C933.1,141.3,940.3,142.3,942,146.4z"/>
	</g>
	<g>
		<path class="st5" d="M179.5,122.6c0,9.9-8.1,18-18,18H86.1c-9.9,0-18-8.1-18-18c0-9.9,8.1-18,18-18h75.5
			C171.5,104.6,179.5,112.7,179.5,122.6z M127.4,122.6c0-3.7-3-6.7-6.7-6.7H92.7c-3.7,0-6.7,3-6.7,6.7c0,3.7,3,6.7,6.7,6.7h28.1
			C124.4,129.3,127.4,126.3,127.4,122.6z M143.6,122.6c0-3.7-3-6.7-6.7-6.7c-3.7,0-6.7,3-6.7,6.7c0,3.7,3,6.7,6.7,6.7
			C140.6,129.3,143.6,126.3,143.6,122.6z"/>
		<path class="st5" d="M318.6,123.2c-0.2,9.9-8.7,17.7-18.6,17.7h-55.2c-2.3,0-4.5-1.7-4.7-4c-0.3-2.7,1.8-4.9,4.5-4.9
			c8.4-1.3,16.4-4.2,23.6-8.6l2.4-1.4c3.8-2.3,2.2-8.2-2.3-8.2h-26.2c-4.3,0-8.2,2.6-9.8,6.6l-0.3,0.8c-3.5,8.2-11.9,13.9-21.6,13.1
			c-9.9-0.8-18.2-8.5-19.5-18.4c-1-6.9,1.4-13.3,5.7-17.8l0,0L225.4,66h0c2.9-3.4,7.3-5.5,12.3-4.9c6.2,0.7,11.2,5.8,12,12
			c0.4,2.8-0.2,5.5-1.3,7.8l0,0l-7.3,18c-1.2,2.9,1,6,4.1,6h55.5C310.7,104.9,318.8,113.1,318.6,123.2z"/>
		<path class="st5" d="M448.2,137.6c0,5.3-4.3,9.6-9.6,9.7l0,0h-90.8c-10.6,0-19.1-9.2-17.9-20.1c0.9-8.1,7.4-14.7,15.5-15.8
			c7-0.9,13.3,2.2,17,7.4c0,0,0,0,0,0l12,15.5c2,2.6,5.1,4.1,8.3,4.1h21c3.5,0,5.6-3.9,3.6-6.9l-1.3-2c-0.1-0.2-0.3-0.4-0.4-0.6
			l-0.1-0.1l0,0c-1.3-2.1-1.8-4.7-1.1-7.5c0.9-3.6,3.9-6.4,7.5-7.1c2.4-0.5,4.7,0,6.6,1l24.3,13.6c0.1,0.1,0.3,0.2,0.4,0.2l0.2,0.1
			l0,0C446.3,131.1,448.2,134.1,448.2,137.6z M462,106c0.2,10.1-7.9,18.3-18,18.3c-6,0-11.4-3-14.6-7.5c0,0,0,0,0,0l-12-15.5
			c-2-2.6-5.1-4.1-8.3-4.1h-21c-3.5,0-5.6,3.9-3.6,6.9l1.3,2c0.1,0.2,0.3,0.4,0.4,0.6l0.1,0.1l0,0c1.3,2.1,1.8,4.7,1.1,7.5
			c-0.9,3.6-3.9,6.4-7.5,7.1c-2.4,0.5-4.7,0-6.6-1l-24.3-13.6c-0.1-0.1-0.3-0.2-0.4-0.2l-0.2-0.1l0,0c-2.8-1.7-4.6-4.8-4.6-8.3
			c0-5.3,4.3-9.6,9.6-9.7l0,0h90.2C453.3,88.4,461.8,96.1,462,106z"/>
		<path class="st5" d="M587.9,136.4c0,2.4-2,4.4-4.4,4.4h-91.7c-9.9,0-18.4-7.8-18.6-17.7c-0.2-10.1,7.9-18.3,18-18.3h55.8
			c2.3,0,4.5,1.7,4.7,4c0.3,2.7-1.8,4.9-4.5,4.9c-8.4,1.3-16.4,4.2-23.6,8.6l-2.4,1.4c-3.8,2.3-2.2,8.2,2.3,8.2h60
			C586,132,587.9,134,587.9,136.4z"/>
		<path class="st5" d="M727.1,123.1c-0.2,9.9-8.7,17.7-18.6,17.7H650c-1.7,0-2.8,1.7-2.2,3.3c1.7,5.3,0.1,13-5.2,17.8
			c-6.9,6.1-17.1,5.7-23.4-0.5l-13.5-13.1c-0.1-0.1-0.2-0.2-0.3-0.3l-0.1-0.1l0,0c-4.4-4.5-6.8-10.9-5.9-17.9
			c1.3-9.5,9-17.2,18.5-18.4c10.6-1.3,20,5.1,23.1,14.4l0,0c1.3,3.6,4.7,6,8.5,6h24.5c3.3,0,6.3-1.5,8.3-4.1l12-15.5c0,0,0,0,0,0
			c3.3-4.6,8.6-7.5,14.6-7.5C719.2,104.8,727.3,113,727.1,123.1z"/>
		<path class="st5" d="M878.8,131.4c-0.9,8.1-7.4,14.7-15.5,15.8c-7,0.9-13.3-2.2-17-7.4c0,0,0,0,0,0l-12-15.5
			c-2-2.6-5.1-4.1-8.3-4.1h-26.9c-4.4,0-8.4,2.7-9.9,6.9l-8.5,23l-0.5,1.5l0,0c-3.1,9.3-12.5,15.8-23.1,14.4
			c-9.5-1.2-17.3-8.9-18.5-18.4c-0.9-7,1.5-13.4,5.9-17.9l0,0l0.1-0.1c0.1-0.1,0.2-0.2,0.3-0.3l13.5-13.1c3.3-3.2,7.6-4.8,11.9-4.9
			l0,0H861C871.6,111.3,880.1,120.6,878.8,131.4z"/>
		<path class="st5" d="M1011.9,122.8c-0.2,9.9-8.7,17.7-18.6,17.7h-55.2c-2.3,0-4.5-1.7-4.7-4c-0.3-2.7,1.8-4.9,4.5-4.9
			c8.4-1.3,16.4-4.2,23.6-8.6l2.4-1.4c3.8-2.3,2.2-8.2-2.3-8.2h-39.1c-4.4,0-7,5-4.4,8.5l0,0c3.6,3.2,5.6,8.1,4.8,13.4
			c-1,6.6-6.4,11.9-13,12.7c-7.2,0.9-13.6-3.3-16-9.6l0,0l-0.1-0.2c-0.2-0.5-0.4-1.1-0.5-1.6l-2.3-7.6c-3.7-12.2,5.4-24.6,18.2-24.6
			h84.7C1004,104.5,1012.1,112.7,1011.9,122.8z M942,146.4c1.7,4.1-2.7,9.9-9.8,12.8c-7.1,2.9-14.3,2-16-2.1
			c-1.7-4.1,2.7-9.9,9.8-12.8C933.1,141.3,940.3,142.3,942,146.4z"/>
	</g>
</g>
</svg>
