<?xml version="1.0" encoding="utf-8"?>
<!-- Generator: Adobe Illustrator 26.0.2, SVG Export Plug-In . SVG Version: 6.00 Build 0)  -->
<svg version="1.1" id="Layer_1" xmlns="http://www.w3.org/2000/svg" xmlns:xlink="http://www.w3.org/1999/xlink" x="0px" y="0px"
	 viewBox="0 0 1080 1080" style="enable-background:new 0 0 1080 1080;" xml:space="preserve">
<style type="text/css">
	.st0{fill:#E63946;}
</style>
<g id="Vector_31_00000019655463463126033080000005348784266775875762_">
	<g>
		<path class="st0" d="M758.9,633.8c-9.1-14.7-18.1-29.3-26.8-44.2c-1.2-2.1-0.6-5.6-0.2-8.3c0.4-2.7,1.3-5-2.3-6
			c-3.1-0.9-6.2-1.9-8.1,2c-1.2,2.4-2.5,4.8-3.9,7.6c3.8,0,7.1,0,11.1,0c-0.3,6.7,0,12.9-1,19c-0.8,5.1,0.1,9.1,3,13.2
			c5,7.2,10,14.5,14.3,22.2c1.8,3.2,1.8,7.3,2.7,11c-0.8,0.4-1.7,0.7-2.5,1.1c-6-7.5-11.9-15-17.9-22.5c-1,7-3.3,13.6,2,19.9
			c4.4,5.2,7.8,11.3,12.2,16.6c4.2,5,3.9,10.2,2.6,17.4c-2.1-2.1-3.5-3.2-4.4-4.6c-3.5-5-6.8-10.1-10.4-15c-0.8-1-2.5-1.7-3.8-1.8
			c-0.5,0-1.5,1.9-1.7,3.1c-1.5,6.7-1.3,12.9,2.6,19.1c4.3,6.9,7.4,14.6,10.9,22c0.6,1.3,0.6,3.1,0.5,4.6
			c-0.3,6.4-0.7,12.9-1.1,19.3c-2.2,0.9-3.9,1.6-4.6-2c-0.5-2.5-2.4-4.6-3.4-7c-4.1-9.5-11.8-10.8-20.8-9.9c-4.1,0.4-8.2,0.2-12.3,0
			c-4.9-0.3-7.4,2.4-9.6,6.3c-2.3,4,0.8,5.9,2.6,8.1c4,4.8,8.3,9.4,12.6,14c9.1,9.7,18.2,19.5,27.4,29.1c1.1,1.2,2.8,2.5,4.2,2.5
			c9.2-0.2,18.3-0.7,27.5-1.2c0.7,0,1.5-0.4,2.8-0.8c-0.8-1.6-1.3-2.9-2.2-4.1c-6.7-9.5-13.4-18.8-20-28.3c-1.2-1.7-2-3.8-3-5.7
			c5.5,6,11.1,12,17.3,18.8c1.2-3.6,3.1-7,3.6-10.6c3.4-22.4,6.6-44.9,9.9-67.4c0.4-2.5,1-5,1.4-7.5c1-5.7,1-11-2.7-16.2
			c-2.5-3.5-3.2-8.2-4.7-12.4c0.7-4.6,1.5-9.2,2.2-13.8c0.8,0,1.6-0.1,2.4-0.1c-5.3,18.9,6.9,31.9,14.8,45.4c-3,2.7-5.3,4.9-7.6,7
			c0.4,0.5,0.7,1.1,1.1,1.6c2.5-0.9,5-1.9,7.6-2.5c2-0.5,4.3-1.2,6.2-0.8c11,2.8,22,5.8,32.8,9.3c1.8,0.6,4.1,3.9,4,5.9
			c-1.3,20.5-3.1,41-4.8,61.5c-2.2,26-4.4,51.9-6.7,77.9c-1.1,12.2-2.6,24.3-3.9,36.5c-1-3.2-1.1-6.3-1-9.4
			c1.2-21.1,2.4-42.2,3.7-63.3c0.8-13.5,2-27,2.9-40.4c1.3-19.9,2.7-39.9,3.8-59.8c0.1-2.2-0.9-6-2.3-6.5c-8.8-3-17.8-5.3-26.9-7.9
			c-1.5,10.4-3,19.8-4.3,29.3c-2.7,18.8-5.1,37.6-8,56.4c-1.4,9-4.1,17.8-5.3,26.8c-2.4,18.8-1.4,38-6.7,56.5
			c-1.4,5-2.1,10.2-3.3,15.8c2.4,0.2,4.4,0.1,6.3,0.5c11.9,2.1,23.9,3.9,35.7,6.7c7,1.6,7.2,4.1,1.9,8.8c-3.1,2.7-6,5.6-9.2,8.3
			c-10.5,8.8-21.1,17.6-31.5,26.5c-1.4,1.2-1.9,3.4-2.8,5.2c2.1,0.1,4.3,0.7,6.3,0.3c3.1-0.5,6-1.7,9-2.5l-0.1,0
			c11.8-1.9,23.5-3.9,35.3-5.8c4.7-0.8,9.4-1.6,14.1-2.4c19-3,37.9-5.9,56.9-9c13.7-2.2,27.4-4.7,41.1-7c0.9-0.2,1.9,0,3.3,1.1
			c-1.6,0.6-3.1,1.5-4.7,1.9c-10.8,2.7-21.6,6.2-32.6,7.8c-12.3,1.8-20.8,9.2-29.7,16.5c-12.4,10.2-24.9,20.3-37.3,30.6
			c-2.3,1.9-5.9,3.4-3.9,7.5c2,4.1,3.2,8.6,9.6,8.5c22.4-0.3,44.7-0.2,67.1-0.2c2.4,0,4.9,0.4,8.6,0.8c-4.6,6.3-8.5,11.6-12.4,16.8
			c-51,0-102,0-153.1,0c-6.4-15.1-12.8-30.2-19.2-45.3c-2.5-5.9-5.1-11.8-8.6-17.2c7.3,20.8,14.7,41.7,22,62.5c-16.5,0-33,0-49.5,0
			c-3-9.3-6-18.6-8.9-27.9c-4.4-14.4-10.5-27.8-20.6-39.2c-2.3-2.6-4.9-5.2-7.8-6.7c-8.4-4.4-17.1-8.2-25.4-13.5
			c9.1,0,18.2,0,27.3,0c13.3,0,11.3,0.7,11.5-11.2c0-2.9,0-5.8,0-8.7c-0.6,0-1.1-0.1-1.7-0.1c0,4-0.3,8.1,0.1,12.1
			c0.5,5.8-2,7.4-7.5,7.3c-15.5-0.3-31-0.1-46.4-0.1c-0.9,0-1.9,0.1-3.4,0.6c12.6-0.2,10.9,8.9,10.9,16.1
			c-0.1,18.2,3.9,35.3,13.1,51.1c4,6.9,8.6,13.5,12.9,20.2c-15.3,0-30.6,0-45.9,0c-5.2-3.8-6.9-9.4-9.1-15.2
			c-8.7-23.6-9.9-48.6-14.7-72.8c6.8-3.4,6.8-3.5,3.2-10c-5.6-9.9-11-19.9-16.4-29.9c-2.7-4.9-8.7-7.9-15-7.1
			c-1.9,0.2-3.8,0.7-6,1.1c-1.2-4.2-2.4-8.1-3.5-12c-0.3,0-0.5,0.1-0.8,0.1c0,20.8,0,41.7,0,62.5c0,6.3,0,12.5,0,18.8
			c-0.1,6.9-0.9,7.3-7.1,4.4c-1.2-0.6-2.4-1-3.6-1.5c-3.1,5.6-2.6,7.6,2.7,8.4c4,0.6,4.2,2.8,4.8,6c2.8,15.8,6,31.4,9.1,47.2
			c-3.1,0-6.3,0-9.4,0c-2.9-15.1-5.8-30.2-8.8-45.3c0.7-0.1,1.4-0.1,2.2-0.2c0,14,0,28.1,0,42.6c-1.3-3.9-3.6-7.8-3.9-11.8
			c-0.9-14.5-1-29-1.4-43.5c-0.2-6.3-7.4-12-13.2-9.7c-1.5,0.6-2.7,3.9-2.8,6.1c-1.3,21.1-0.4,41.9,7.9,61.8c-6.7,0-13.3,0-20,0
			c-8.5-22.5-11-45.8-8.9-69.7c-0.5-0.3-1.1-0.6-1.6-0.9c-15.7,23.5-31.4,47.1-47.1,70.6c-8.2,0-16.5,0-24.7,0
			c-13.6-13.3-27.2-26.6-40.8-39.8c-25.7-25-51.4-49.9-77.1-74.9c-14.3-13.9-28.6-27.9-43-41.8c-7.5-7.3-20.1-7.9-27.8-1.1
			c-19.6,17.4-39.1,35-58.7,52.5c-17.8,15.9-35.6,31.9-53.5,47.7c-1.6,1.4-3.6,2.2-5.4,3.2c1.5-2,2.8-4.2,4.4-6.1
			c11.9-13.7,24-27.2,35.7-41c4.5-5.2,8.6-10.6,15.4-13c0,0,0,0,0,0c5-3.7,10.2-7.2,15.1-11c15.6-12.2,30.9-24.8,46.6-36.8
			c8.6-6.6,21.3-5.1,28.8,2.3c11.8,11.5,23.8,22.8,35.4,34.4c3.5,3.5,5.7,3.1,9.3,0.1c11.4-9.6,22.9-19,34.7-28.2
			c4-3.1,5.2-5.8,3.3-10.8c-2.3-5.9-3.4-12.4-5-18.6c7,5.4,6.6,15.4,15.1,19.2c7.4,3.3,14.6,7,21.9,10.5c0.2-0.5,0.5-0.9,0.7-1.4
			c-7.3-4.8-15.8-8.4-21.6-14.6c-5.8-6.1-7.2-15.2-7.7-24.1c2.1,1.2,3.4,2.7,4,4.5c1.7,4.4,2.9,9,4.6,13.3c2.8,7.2,7.2,8.4,13.3,3.9
			c9.5-7,19-14,28.5-20.8c2.5-1.8,5.2-3.6,9.2,0.8c-10.3,9.5-20.4,18.8-30.5,28.2c9.5-1.6,38.9-22,44.5-30.2
			c-3.6-1.1-6.7-2.7-9.8-2.8c-19.2-0.3-38.5-0.1-57.7-0.2c-6.9,0-8.3-1.3-8.7-8c-0.6-10.2-1-20.4-1.7-30.5c-0.2-3.5,0.7-5.3,4.3-5.3
			c16.5,0,33,0.1,49.4,0.1c2.7,0,5.5-0.1,8.2-0.1c2.3,0,4.7,0,7,0c-0.9,2.1-1.3,4.8-2.8,6.2c-6.2,5.7-13.4,10.5-18.9,16.7
			c-2.5,2.8-2.5,8.3-2.3,12.4c0.1,1.2,4.6,2.6,7.3,3.2c4,0.9,8.1,1.2,12.2,1.7c7.4,0.8,14.6,2.3,21.5,9.5c-1.5,0.8-3.1,1.3-4.3,2.2
			c-12.3,9.7-24.6,19.4-36.8,29.4c-2,1.6-4.7,5.8-4.2,6.4c2.1,2.6,5.3,6,8.2,6.1c20.1,0.4,40.4,2.1,59.9-5.3c1-0.4,2.3-0.2,4-0.3
			c-0.8,0.9-1,1.3-1.3,1.4c-15,7.5-31.2,8.7-47.5,9c-6.6,0.1-13.4-0.8-19.6-2.6c-7.9-2.3-15.4-5.9-22.8-9.3c-3.2-1.5-5.2-1.3-7.8,1
			c-8.7,7.7-17.5,15.2-26.4,22.6c-6.2,5.2-12.5,10.1-18.8,15.2c-0.3-0.4-0.7-0.8-1-1.2c14.7-13.6,29.5-27.2,44.2-40.8
			c-0.6-0.6-1.1-1.2-1.7-1.8c-16.1,13.4-32.1,26.9-46.7,39.1c8,8.9,15.7,17.8,23.8,26.3c5.9,6.3,12.3,12.1,18.5,18.1
			c2.6,2.5,5.1,3.4,8.2,0.8c1.7-1.4,3.7-2.3,5.4-3.5c26.8-18.2,53.6-36.3,80.2-54.7c5.7-3.9,10.4-9.2,15.7-13.7
			c1-0.9,2.7-1.5,4.1-1.4c6,0.2,12.1,0.5,18.1,1.2c13.8,1.6,27.6,3.3,41.4,5.1c7.5,1,7.5,1,7.5-6.4c0.1-58.5,0.1-116.9,0.2-175.4
			c0-3.5,0.1-7.1-0.1-10.6c-0.5-6.8-4.6-11-11.2-12.2c-10-1.8-20-4.1-30-5.5c-3.1-0.4-7-3.6-10.2,0.8c-0.2,0.3-2.2-0.3-3.1-0.9
			c-15.1-9.9-30.1-19.9-45-30c-1.8-1.2-3.6-4-3.7-6.1c-0.4-10.7-0.2-21.5-0.2-32.2c1.3,8.9,1.4,17.9,1.2,26.8
			c-0.1,4.2,1.3,6.9,4.9,9.2c13.6,8.9,26.8,18.5,40.8,26.8c4.1,2.4,10.2,1.4,15.4,2c1.1,0.1,2.2,0,3.3,0.3c4.1,0.9,8.1,1.9,12.2,2.8
			c2.9,0,5.8,0.2,8.7,0c5.6-0.4,11.3-1.7,15.9,3.3c2.1,2.3,5.3,3.8,7.5,0.4c2.6-4.2-2.1-3.9-4-5.2c-0.3-0.2-0.5-0.6-0.7-0.9
			c4.4-3.8,8.8-3.3,14.6,2c0-5.7-0.9-10.3-7.4-11.7c-2.1-0.4-4.1-1.4-5.9-2.7c-8.3-5.9-17,1.3-22.9,8.7c-3.6-2.5-7.1-5.1-10.8-7.6
			c0.6-0.6,1-1,1.1-1c7.3,5.1,13.4,2.8,19.2-2.9c3.1-3.1,6.6-3.5,10.7-1.5c4.9,2.4,10.4,3.8,15,6.6c2.3,1.3,3.9,4.6,4.8,7.3
			c1.6,4.5,2.3,9.2,3.4,13.9c0.8,0,1.6,0,2.3,0c0.4-2.2,1.1-4.5,1.2-6.7c0.4-14.7,3.8-19.3,17.9-24.3c14.1-4.9,28.1-10,42.1-15
			c7.5-2.6,13.8,1.3,20.5,2.5c-0.1,0.5-0.2,1-0.2,1.5c-5.4-0.4-10.7-0.8-16.1-1.2c-0.1,0.5-0.1,1.1-0.2,1.6c4.5,2.2,9,4.5,15.3,7.6
			c-7.6,2-13.4,3.6-19.3,5.2c0.1,0.5,0.2,1,0.3,1.5c7.4-1.5,14.8-2.9,22.1-4.8c0.8-0.2,0.8-3.5,1.2-5.6c2.2,1.2,4.7,2.6,7.3,4.1
			c0.5-0.5,1-1.1,1.5-1.6c-1.9-3-3.3-6.8-5.9-8.9c-4.8-3.9-4.4-8.6-4-13.7c9.4-3.6,18.7-7.1,28.1-10.7c2.1-0.5,4.2-0.8,6.3-1.4
			c5.8-1.6,6.7-1.3,9.5,4.5c-7.9-3.9-40.1,6-40.7,12.8c11.1-3.6,22.2-7.3,33.3-10.7c1.8-0.5,4,0.4,6.1,0.7
			c-10.5,3.6-21.1,7.2-31.6,10.8c-5.3,1.8-5.9,3.4-3,8.1c5.1,8.4,14.5,8.6,22,1c2.4-2.5,6.6-4.6,9.9-4.5c6.6,0.3,10.4-3.4,14.4-7.3
			c-0.5,2.6-1.1,5.3-2,9.7c9.2-1.3,17.7-2.5,25.7-3.6c-7.8-2-15.8-4.1-23.8-6.1c-3.2-2.4-6.4-4.8-9.6-7.1c4.7,1.4,9.8,2,13.8,4.4
			c5.5,3.4,7.8,1.5,10.5-3.3c8.8-16,17.8-31.8,26.8-47.7c0.8-1.5,2-2.7,3.1-4c0.5,0.4,0.9,0.7,1.4,1.1
			c-8.9,16.8-17.9,33.6-27.3,51.3c5,0.7,8.7,1.1,12.3,1.7c4.9,0.8,8.7-0.1,10.9-5.2c0.7-1.6,3.3-3.4,4.9-3.2
			c5.7,0.6,10.6,0.7,12.5-7.2c6.4,8.9,11.8,17.3,17,25.7c0.7,1.2,0.5,3.1,0.4,4.6c-0.2,5.7-0.8,11.3-0.8,17c0,3.2,0.3,6.7,1.5,9.6
			c2,4.9,4.8,9.4,7.3,14.1C761.3,634.8,759.5,634.7,758.9,633.8z M476.2,861.3c-0.1-0.6-0.2-1.1-0.3-1.7c-5.7-1.6-11.5-3.1-17.2-4.7
			c-0.1-0.6-0.1-1.3-0.2-1.9c14.1-2.4,28.1-4.7,42.2-7.1c0-0.5,0-1,0-1.5c-9.3-1.4-18.6-2.9-28.7-4.4c0.7,2.3,1.2,3.8,1.7,5.6
			c-0.6,0.1-1.4,0.3-1.6,0.1c-8.3-10.9-16.1-6.3-25.1-0.2c-27.3,18.4-55.1,36.1-82.7,54c-1,0.6-2,1.1-3.5,1.9c3.3,3,5.5,5,7.6,7.1
			c-0.2,0.4-0.3,0.9-0.5,1.3c-5.7-0.7-11.4-1.5-17.1-2.2c-0.2,0.5-0.4,0.9-0.7,1.4c2.8,3.6,5.5,7.2,8.3,10.8
			c-8.3,0.4-10-10.4-19.1-7.4c13.7,13.2,27.5,26.5,41.2,39.7c0.5-0.3,0.9-0.6,1.4-0.9c-1.2-1.9-2.1-4.1-3.6-5.6
			c-4.9-4.8-9.9-9.5-15.1-14c-3.4-2.9-2.7-4.9,0.5-7.3c25.7-19.3,51.3-38.7,76.9-58.1c1.2-0.9,2.5-1.9,3.7-2.9
			c6-5,15.7-4.2,21.3,1.8c-9.6-2.7-16.3,2.5-23.1,8.1c-7.4,6-15.2,11.5-22.8,17.2c0.3,0.5,0.5,0.9,0.8,1.4c2.6-1.4,5.3-2.5,7.7-4.2
			c4.9-3.6,9.7-7.3,14.4-11.2c6.8-5.6,13.6-11.2,23.1-11.3C469.2,863.7,472.7,862.5,476.2,861.3z M714.1,659.8
			c-6,2.9-11.8,6.1-17.9,8.8c-2.1,0.9-5.7,1.7-6.8,0.7c-2.6-2.4-1.1-9,1.9-10.8c1.7-1,3.6-1.6,5.3-2.4c5.5-2.5,11.1-5,16.6-7.5
			c9.9-4.5,12.1-9.3,8.9-21.2c-12.2,5.8-24.2,11.5-36.3,17.2c-2.7-8.3-1.9-10.4,4.6-14.1c8.7-4.9,17.3-10.1,26.1-14.9
			c5.4-2.9,9.2-6.4,8.7-13.1c-0.1-1.3,0.5-2.7,0.6-4.1c0.9-10,0.2-10.7-9.5-8.7c-35.9,7.6-71.8,14.8-107.5,23.1
			c-16.7,3.9-33.1,9.5-49.3,15.4c-6.4,2.4-11.6,7.9-17.5,11.7c-3,1.9-6.4,3.3-8.5,4.4c4.4-0.2,5.9,3.7,6.4,8.7
			c2.8,29,5.7,58.1,8.6,87.1c0.3,2.5,0.8,5,1.4,8.6c7.4-5.1,14.2-9.7,21-14.3c0.4,0.4,0.8,0.9,1.1,1.3c-3,2.7-6,5.4-9.1,8.1
			c-4,3.4-10.3,6.2-11.5,10.4c-1.1,4,3,9.6,5.2,14.3c13.3,28.4,26.6,56.8,40,85.2c0.3,0.7,0.8,1.3,1.8,2.7
			c8.2-6.6,16.2-13.1,24.3-19.7c-8.5-20.1-16.9-39.7-25.3-59.3c-5.8-13.5-12.4-26.8-17-40.7c-2.3-6.9-1.5-15.1-1.4-22.6
			c0.1-14.1,0.5-28.2,1.1-42.3c0.6-12.9,1.6-25.7,3.3-38.6c0.1,2.1,0.3,4.2,0.4,6.3c0.3,29.6,0.6,59.2,1.1,88.8
			c0.1,4.4,0.8,9.1,2.4,13.1c11.4,28.6,23.1,57.1,34.7,85.6c0.6,1.6,1.6,3.1,3.4,6.3c4.8-10.6,9.2-19.9,13.1-29.3
			c9.2-21.9,17.5-44.2,27.5-65.6c4.5-9.6,11.5-18.3,18.5-26.3c9.3-10.6,19.5-20.3,29.7-30.1c4.1-3.9,6.7-7.8,6.2-13.7
			c-0.3-3.2,0.7-6.5,1.2-10.8C718.4,658.4,716.1,658.9,714.1,659.8z M715.3,812.4c0,2.9,0.5,5.9-0.2,8.5c-2.7,9.4-0.5,18.7,0.8,27.9
			c0.9,6.8,2.3,13.5,3.4,20.3c0.7,4.2,2.6,5.6,7,4c6.4-2.4,13-4.2,19.6-6.2c6.9-2.1,11.2-6.3,13.1-13.6c6.5-24.1,7.8-48.7,7.2-73.4
			c0-1.5-2.7-4-4.2-4.1c-8.4-0.4-17-1-25.2,0.3c-3.8,0.6-7.8,4.9-10.1,8.5c-3,4.9-4.2,10.9-6.7,16.3c-0.9,1.8-3.3,3-5,4.4
			c-0.3-2.1-1.5-4.5-0.9-6.3c2.7-7.4,5.6-14.6,8.9-21.7c1.9-4.1,2.1-6.9-2.1-9.8c-12-8.4-23.8-17.2-35.6-25.9
			c-3.2-2.4-4.8-1.2-7,1.8c-7.6,10.3-7.4,21.9-6.2,33.7c0.3,2.8,1.3,6.1,3.2,8.1c10.5,11.4,21.4,22.5,32.2,33.6
			c0.2-0.7,0.5-1.4,0.7-2.1C710.6,815.2,713,813.8,715.3,812.4z M754.5,870.6c-5.8,3-10.3,8.8-15.1,13.6c-5,5-9.5,10.4-14.4,15.5
			c-2.5,2.5-2.7,4.8-0.8,7.8c2.3,3.6,4.4,7.4,6.4,11.2c1.6,3,3.4,3.1,6.7,2.4c15.1-3.4,25.4-14.2,36.8-23.2
			c8.9-7,17.2-14.7,25.8-22.2c0.6-0.5,0.9-1.2,2.3-3.2C785.6,869.6,770.2,862.6,754.5,870.6z M587.6,600.1
			c-10.7,4.6-22.1,7.9-33.2,11.8c-6.7,2.3-10.1,9.6-6.1,13.3c1.2,1.1,3.9,1.7,5.5,1.2c7.4-2.6,15.8-4.2,21.5-9
			c10.3-8.7,23.9-8.1,35.6-15.2C602.8,598.2,595.9,596.5,587.6,600.1z M685.9,839.2c2.7,4.4,6.8,7.9,10.5,11.7
			c0.6,0.7,2,0.6,3.1,0.9c0.2-1,0.9-2.2,0.6-3c-3-8.3-7.5-15.5-16.4-20.1C684.3,832.2,684.1,836.3,685.9,839.2z M660,834.9
			c6,8.7,28.6,24.1,35.5,24.2C686.2,846.8,671.2,843.6,660,834.9z M726.9,693.3c0.3-0.9,0.6-1.3,0.5-1.6c-5.3-13-5.3-13-15.9-3.7
			c-2.2,1.9-4.4,3.8-6.6,5.7C712.5,691.2,719.5,687.9,726.9,693.3z M759.2,920.1c-2,0.3-3.4,0.2-4.6,0.6c-3.6,1.1-7.1,2.3-10.6,3.6
			c-8.4,2.9-8.7,4.4-2,12.1C741.5,923.8,753.8,926.8,759.2,920.1z M585.1,860.5c-0.8,0.9-1.5,1.8-2.3,2.7c1.3,1,2.7,2,4,3.1
			c0.7-0.8,1.4-1.6,2-2.4C587.6,862.8,586.3,861.6,585.1,860.5z"/>
		<path class="st0" d="M158.5,981.4c-1.6-0.9-3.2-2.2-5-2.7c-4.3-1.4-8.7-2.5-13-3.7c-15.1-4.3-20.2-12.3-21.1-28.2
			c-1-17.9,6.4-30.3,19.7-41.4c23.2-19.2,45.6-39.5,68.3-59.3c1.1-1,2.4-1.8,4.4-3.3c-0.3,2.5-0.3,4-0.8,5.4
			c-9.4,29.4-18.8,58.7-28.3,88c-4.1,12.7-8.6,25.2-13,37.8c-0.9,2.6-2.1,5-3.1,7.6c1.6,0,3.1,0,4.7,0c4.6-14.3,9.2-28.7,14-43
			c9-26.9,18.2-53.7,27.4-80.6c2.2-6.5,4.5-13,6.6-19.5c0.6-1.9,1.1-3.9,1.6-5.9c-0.4-0.3-0.8-0.6-1.3-0.9c-2.6,2.1-5.3,4.2-7.9,6.4
			c-33.1,28.5-66.2,56.9-99.3,85.5c-4.9,4.2-9.4,8.8-14.1,13.3c0,14.9,0,29.8,0,44.7C118.4,981.4,138.4,981.4,158.5,981.4z"/>
		<path class="st0" d="M981.5,979.1c-9.6-7.2-19.3-14.2-28.7-21.6c-2.2-1.7-3.9-4.5-4.8-7.1c-2.3-6.9-3.6-14.1-6.2-20.8
			c-4.1-10.7-0.1-20.5,2.7-30.3c1.3-4.6,0.2-7.3-3.6-9.8c-3-1.9-4.5-1.7-5.5,1.8c-8.2,30.1-16.4,60.1-24.6,90.2
			c22.4,0,44.8,0,67.2,0C979.5,981.4,982.2,982.6,981.5,979.1z"/>
		<path class="st0" d="M342.3,158.6c11.6,6.1,23.3,12.1,34.8,18.3c33.1,17.8,66.1,35.6,99.2,53.5c21.7,11.7,43.3,23.5,65,35.2
			c2.9,1.6,6.1,2.5,9.2,3.8l0.3-0.3c-6.3-3.9-12.4-8.1-19-11.4c-4.2-2.1-5.5-4.7-5.6-9.1c-0.6-19.4-1.4-38.8-2.3-58.1
			c-0.3-6.4,3.5-7.5,9.1-7.3c-3.3-4.9-6.4-2.5-9.4-0.8c-11.4,6.8-22.7,13.6-34,20.4c-2.1,1.3-4.1,2.6-6.2,3.9
			c0.3,0.6,0.6,1.1,0.9,1.7c11.8-6,23.7-11.9,36.5-18.4c0.6,20.8,1.3,40.6,1.9,62.1c-4.6-2.2-7.8-3.5-10.8-5.2
			c-41.9-22.7-83.7-45.4-125.5-68.2c-48.8-26.6-97.6-53.3-146.5-80c-1.6,0-3.1,0-4.7,0c10.9,6.5,21.6,13.3,32.7,19.4
			c21.1,11.6,42.3,22.8,63.5,34.3c1.4,0.7,2.5,1.8,3.8,2.7C337.4,156,339.8,157.3,342.3,158.6z"/>
		<path class="st0" d="M828.3,906.1c10.9-2.2,21.8-4.5,32.8-6.6c25.6-4.7,51.3-9.3,76.9-14c8.9-1.6,8.9-1.6,12.8,6.5
			c8.7,18.4,17.3,36.9,26,55.3c1.3,2.8,3.1,5.4,4.7,8.1c0-1.6,0-3.1,0-4.7c-10.2-22.7-20.6-45.3-30.6-68c-1.7-3.8-3.4-4.9-7.6-4
			c-23.6,4.9-47.2,9.5-70.8,14.2c-26.1,5.2-52.2,10.3-78.3,15.6c-7.4,1.5-14.7,3.4-22.1,5.6c2.3,0,4.6,0,6.9,0c0,0-0.1,0-0.1,0
			c11.8-1.9,23.5-3.9,35.3-5.8C818.9,907.7,823.6,906.9,828.3,906.1z"/>
		<path class="st0" d="M346.3,161.9c8.9,5.4,17.8,10.6,26.8,16c32.6,19.5,65.5,38.8,97.9,58.7c31.9,19.6,63.4,39.9,95,60
			c8.2,5.2,16.1,11.1,24.4,16.2c6.8,4.2,14.1,7.8,21.1,11.5c11.5,6.1,23.1,12.2,34.7,18.3c0.4-0.3,0.9-0.6,1.3-0.9
			c-1.4-2.8-2.4-6-4.3-8.4c-3.8-4.7-7.8-9.4-12.3-13.4c-4.7-4.2-10.4-7.3-15-11.6c-4.9-4.6-12.8-6.5-13.6-15.1
			c-0.9-9.7-2-19.5-4-29.1c-4.8-23.2,1.5-21.3-22.4-29.8c-6.8-2.4-13.5-5.2-20.3-7.8c-2.5-0.9-4.9-1.8-8.5-3.1c0,8.5,0,15.9,0,23.3
			c-1.3-4.7-1.9-9.3-2.2-14c-0.7-12.9-1.5-25.8-1.6-38.7c-0.1-7.4,3-9,9.7-5.9c26,12,52,24,77.9,36.2c2.2,1.1,4.4,3.4,5.5,5.6
			c4.4,9.6,8.4,19.4,12.4,29.2c1.1,2.8,1.9,5.7,2.8,8.6c-2-0.7-2.9-1.9-3.5-3.2c-4.7-10.1-9.1-20.4-14.1-30.4
			c-1.2-2.4-3.6-4.8-6-5.8c-26.6-11.4-53.3-22.5-80.3-33.9c0.3-0.9,0.9-2.3,2-5.1c-5.3,5.9-5.3,12.2-0.8,14.3
			c22.9,10.8,45.8,21.4,68.9,31.9c1.5,0.7,3.8-0.6,5.8-1c0-0.7-0.1-1.4-0.1-2.1c-15.7-7.2-31.4-14.3-47.1-21.5c1.3-1,2.3-1,3.1-0.6
			c14.4,6.2,28.9,12.3,43.1,18.8c6,2.8,10.3,7.1,11.4,14.5c1.3,8.3,3.8,16.4,5.8,24.6c4,16.7,4,16.9,20.3,11.6
			c4.4-1.4,6.7-0.7,8.9,3.4c8.9,17.3,18,34.4,27,51.6c0.4,0.8,0.2,1.9,0.3,2.8c-1.7-1.1-2.5-2.3-3.3-3.6
			c-8.8-15.5-17.7-31-26.5-46.5c-1.7-3.1-3.6-4.5-7-2.5c-9.9,5.6-19.9,11-29.7,16.7c-5.3,3.1-5.6,5.8-1.3,10.2
			c5.1,5.4,10.7,10.3,15.5,15.9c2.7,3.2,4.9,7.1,6.5,11c1.7,4.1,2.1,8.8,3.6,13c1.8,5.3,3.2,10.5-0.2,15.8c-0.8,1.2-0.4,3.1-0.5,3.7
			c3.8-1.5,7.3-3,10.8-4.1c1.9-0.6,4.6,0.1,6.1-1c5.3-4,10.4-8.3,15.4-12.7c3.4-3,6.8-5,11.7-3.1c1.4,0.5,3.5-0.6,6.1-1.1
			c1.1,1.2,2.7,3.5,4.8,5.2c26.1,22.3,52.1,44.6,78.4,66.7c10.2,8.6,10.4,8.3,19.2-2.4c2.9-3.4,6.1-6.6,9.2-9.8
			c0.5,0.5,1.1,1,1.6,1.5c-13,14.9-26,29.7-39.3,44.8c3.2,3.5,6.3,7,9.6,10.3c2.2,2.2,2.6,4,0.3,6.5c-11.8,12.9-23.3,26-35.3,38.6
			c-1.7,1.8-5.5,2.6-8.2,2.3c-4.8-0.5-9.5-2.2-14.3-3.4c4,2.3,8.4,3.4,12.6,5c1.7,0.6,3.6,1.7,4.6,3.2c5.6,7.8,11.1,15.6,16.2,23.8
			c1.7,2.8,2.8,6.5,2.7,9.8c-0.3,6.6-1.6,13.2-2.4,19.8c-1.2,9.9-3.3,19.8,3.6,28.7c0.9,1.2,1.8,2.9,1.7,4.3c0,4.1-0.6,8.2-0.9,12.3
			c-0.8,0-1.6,0-2.4-0.1c2.1-8.7-1.7-15.7-5.2-23c-1.5-3.2-2.5-7.2-2.2-10.7c0.9-11.5,2.5-23,3.7-34.5c0.2-1.5,0.3-3.4-0.4-4.6
			c-4.8-7.3-9.8-14.4-14.8-21.6c-7.3,5.8-14.4,6.3-20.8,1.9c-6.2-4.2-10.3-3.3-13.8,3.1c-7.6,14-15.2,27.9-22.7,41.9
			c-4.1,7.6-4.7,7.7-10.7,2c-8-7.6-17.6-8.1-26.9-1.4c-9.4,3.6-18.7,7.1-28.1,10.7c-1.1,1.3-2.6,2.5-3.4,4c-0.9,1.8-1.3,3.9-2,6
			c-1.2-0.4-2-0.4-2.2-0.8c-3.7-7.4-8.6-5.9-15-3.3c-17.8,7.2-36,13.4-53.8,20.4c-3.4,1.4-6.1,4.8-10.3,8.2c-5.6-2-13.2-5-21-7.2
			c-14.7-4.1-29.6-7.6-44.3-11.6c-5.7-1.5-6.9,2.9-9,6.3l-0.5,0.3c-1.3-0.9-2.6-1.9-3.9-2.8c-0.5,0.4-0.9,0.8-1.4,1.2
			c3.5,5,6.4,10.5,11.6,14.4c0.8,1.2,1.5,2.3,2.3,3.5c0,0.9,0,1.8,0,4.3c-5.7-5.6-9.7-11.7-15.3-14.6c-6.7-3.5-8.2-9.6-11.7-14.9
			c-6.5-9.8-13.2-19.5-19.8-29.2c-2.8-4.2-5.4-8.4-8.7-13.5c2.9-0.5,4.7-1.2,6.5-1.2c8.6,0.5,17.2,1,25.8,1.9
			c2.1,0.2,4.5,1.6,5.8,3.3c2.5,3.2,4.6,3.1,7.9,1.2c5-3,10.1-6.6,15.6-7.8c19.9-4.4,39.9-8.2,60-11.5c11.9-2,24.2-4.3,36.1-3.4
			c29.5,2.2,58.8,6.4,88.2,9.4c3,0.3,7.1-1.1,9.2-3.2c10.5-10.3,20.4-21.2,30.5-31.9c0.8-0.9,1.2-2.2,2.2-4.1c-2.8,0-4.7-0.1-6.6,0
			c-20.5,1.7-41,3.2-61.5,5.1c-14,1.3-28.1,2.4-42,4.8c-15.4,2.7-30.6,6.7-45.9,10.1c-23,5-45.9,10-68.9,14.9
			c-10.6,2.3-21.3,4.3-32,6.4c14.5-4.9,29.3-8.6,44.1-12c26.2-6,52.4-11.8,78.6-17.6c13.4-3,26.7-6.8,40.3-8.3
			c31.7-3.5,63.6-5.9,95.4-8.8c2.1-0.2,4.8-0.6,5.9-2c6.8-8.8,13.2-17.9,20.8-28.3c-5.2-0.5-8.8-1.2-12.3-1c-8,0.6-16,1.5-24,2.4
			c-26.7,3-53.5,4.7-79.9,9.4c-26.4,4.7-52.3,12.1-78.3,18.6c-8.6,2.1-17,4.7-25.3,7.7c-25.7,9.1-51.3,18.4-76.9,27.6
			c-1.3,0.5-2.8,0.6-4.2,0.9c97-42.5,198.1-67.8,305.2-74.6c-10.3-5.6-19.3-10.7-28.5-15.3c-9.2-4.7-18.7-8.8-28.1-13.3
			c7.1-6.1,12.5-1,18.2,2.2c11.8,6.6,21.7,17,36.2,18.7c1.8,0.2,3.8,1.6,5,2.9c4.8,5.4,11.2,5.9,17.6,6.6c3.9,0.5,7.8,0.7,11.7,1.6
			c5,1.1,9.9,2.7,14.9,4.1c0.3-0.6,0.6-1.1,0.9-1.7c-3.6-2.3-7-5.1-10.8-6.9c-4.2-1.9-8.9-2.7-13.4-4.2c-1.1-0.4-2-1.6-3-2.4
			c3-2.6-0.2-2.9-1.5-3.6c-15.4-8.9-30.9-17.8-46.4-26.7c-6.1-3.5-6.2-3.5-10.4,3.9c15.1,6.6,30.2,13.2,45.3,19.9
			c-0.2,0.6-0.4,1.1-0.6,1.7c-2.3-0.7-4.6-1.3-6.9-2.2c-11.4-4.3-22.8-8.4-34-13.2c-5.2-2.2-9.7-5.9-14.4-8.8
			c2.7-2.1,4.9-3.3,6.4-5.1c0.7-0.8,0.1-2.7,0-4c-1.2,0.4-2.9,0.4-3.4,1.2c-4.7,8-10.7,6.5-17.3,2.9c-2.6-1.4-5.5-2-8.1-3.4
			c-6.7-3.5-14.3-6.1-19.8-11c-7.6-6.7-13.4-15.3-20.2-22.9c-17.3-19.2-34.1-39-55.6-53.9c-5.1-3.5-11-5.9-16.2-9.4
			c-10-6.8-19.6-14.2-29.6-21.1c-1.7-1.2-4.4-1.9-6.4-1.4c-9,1.8-18.1,3.7-26.8,6.4c-8.1,2.6-15.8,6.3-23.7,9.5
			c17.2,0.2,34-1,50.7,2.7c-2,1-4,1.3-6,1.3c-8.6,0-17.3,0-25.9,0c-14.3,0-28.1,1.1-41,9.3c-17,10.8-35.7,19-52.3,30.3
			c-19.7,13.5-38,29-56.8,43.8c-9.7,7.6-19.6,15.1-28.7,23.4c-12.5,11.5-24.4,23.8-36.5,35.8c-1.5,1.5-3.4,2.7-6.1,4.8
			c0-4.3,0-7.1,0-11.2c1.4,2.4,2.1,3.6,3,5.2c1.6-1.5,2.9-2.7,4.2-3.8c28.7-26.7,57.1-53.8,86.3-79.9c11.3-10.1,22.3-20.8,37.2-26.4
			c5.7-2.2,10-8.1,9.8-15.5c-0.5-14.1-0.9-28.2-1.5-42.3c-0.2-5.2-0.9-10.3-1.4-16.4c-5.9,4.3-10.9,8-15.9,11.7
			c-23.7,17.4-47.7,34.3-68,56c-9.5,10.2-17.3,21.3-22.6,34c-10.1,24.1-19.8,48.3-29.7,72.5c-0.8-0.3-1.6-0.5-2.5-0.8
			c0.8-3.3,1.1-6.7,2.3-9.8c5.9-14.7,12.7-29.1,18.1-44c6.9-19,16.4-36.4,29.8-51.5c7.4-8.3,14-17.7,22.6-24.6
			c18.4-14.7,37.7-28.1,56.9-41.8c3.4-2.4,6.4-7.6,12.1-4c0.5,0.3,2.5-1.1,3.2-2.1c1.4-1.9,2.5-4,3.4-6.2c4.1-9.9,14.3-12.2,21.7-18
			c-3.4,4.3-7.5,7.8-11.6,11.4c-7.6,6.6-12.3,14.6-11.8,25c0.8,18.3,1.7,36.7,2.6,55.7c32.7-17.1,64.1-36.7,100.7-45
			c0-0.6-0.1-1.2-0.1-1.7C437.4,237.7,362.2,187.6,287,137.5c3.5,0.6,6.5,2,9.1,3.8c9.1,6.3,18.5,11.7,30.2,11.6
			c2.9,0,5.7,1.2,8.6,1.8c2.4,1.3,4.9,2.5,7.3,3.8C343.6,159.7,344.8,161,346.3,161.9z M616.6,560.2c-13.2-4.9-26.1-11.4-39.7-14
			c-12.2-2.3-25.3-1.3-37.7,0.1c-11,1.3-21.7,5.1-32.5,7.9c-1.3,0.3-2.8,0.6-3.9,1.3c-8.2,4.9-13.7,12.5-2,18.7
			c6.7,3.5,14,5.9,20.9,9c13.1,5.8,26.3,5.8,40,2.2c14.2-3.7,28.8-5.7,42.9-9.8c6.2-1.8,11.5-6.7,17.3-10.2
			c-0.2-0.8-0.3-1.5-0.5-2.3C619.8,562.1,618.3,560.8,616.6,560.2z M711.7,408c3.4,0.9,6.4,3.8,9.6,5.6c2.9,1.6,5.7,4,8.8,4.5
			c7.6,1.1,15.4,1.4,24.8,2.1c-3.8,4-6.5,6.9-9.2,9.8c0.4,0.5,0.7,1.1,1.1,1.6c8.5-2.6,17.1-5,25.6-7.9c4.6-1.5,8.1-0.9,11.7,2.5
			c3.2,3,3.8,4.9,0,7.7c-5.4,4.2-10.6,8.7-15.8,13.2c-1,0.8-1.8,1.9-3.2,3.5c2.6,1.4,4.7,2.6,7.8,4.3c1.1-9.8,9.1-12.3,15.4-16.6
			c7-4.8,6.7-6.7,0.2-12.2c-8.8-7.5-17.4-15.2-26.3-22.6c-2.1-1.8-5.1-3.5-7.7-3.5c-22.5,0.2-45,0.8-67.5,1.3
			c-0.1,0.6-0.2,1.2-0.3,1.8C695,404.6,703.4,405.9,711.7,408z M647.4,389.5c-2.7-2.6-5.3-5.2-8.2-7.6c-7.3-6-11.9-13.2-10.7-24.1
			c-0.8,1.3-1,1.6-1.1,1.9c-0.8,2.2-1.5,4.4-2.3,6.6c-2-1.1-4.8-1.8-5.7-3.5c-1-2-0.8-5-0.2-7.4c0.6-2.7,1.9-5.4,3.2-7.9
			c1-1.8,2.2-3.8,3.9-4.8c3-1.8,3.1-3.8,0.4-5.2c-10.5-5.5-21.2-10.8-32.6-16.5c0.2,3,0.3,5,0.5,8.7c-21.4-13-41.8-25.3-62.1-37.7
			c-0.2,0.4-0.5,0.8-0.7,1.2c9.4,6.2,18.8,12.5,28.2,18.7c8.5,5.6,17.1,11.1,25.6,16.7c1.6,1.1,3.1,2.5,4.1,4.1
			c10.8,17.1,25.1,30.9,39.4,45c6.7,6.6,12.2,14.4,18.6,21.9C652.4,395,652.4,394.4,647.4,389.5z M447.6,589.3
			c0.8-7.3,1.1-12.8,2-18.2c0.5-3.4,2-6.6,2.6-9.9c0.9-4.7-2.8-6.5-6.1-6.7c-7.7-0.5-15.5-0.2-24.5-0.2
			C430.1,565.7,438.3,576.7,447.6,589.3z M680.1,396c23.2,0.2,46.5,0.1,69.8-0.8c-3.1-5.3-6.8-8.4-12.6-8
			c-13.3,0.9-26.5,1.8-39.8,2.7c-8.3,0.6-16.7,1-25,1.5c-0.1,0.7-0.3,1.5-0.4,2.2C674.8,394.4,677.5,395.9,680.1,396z M679,416.4
			c5,1.6,6.4-2.9,9.3-6.7c-5.1-2.9-9.7-5.7-14.5-8.1c-1.1-0.5-3.4,0.1-4.6,1.1c-2.4,1.9-4.3,4.4-6.9,7.1
			C668.2,412.2,673.5,414.7,679,416.4z M719.4,499.1c-0.6,0.7-0.1,2.8,0.4,4c0.1,0.4,2.5,0.5,3,0c8.5-10.6,16.9-21.2,25.3-31.9
			c-0.7-0.5-1.3-1-2-1.5C737.2,479.5,728.2,489.2,719.4,499.1z M660,396c-7,0-7.2,0.1-9.6,7.6c6.7,1.4,8.9-4.8,14.3-6.9
			c-2.3-1.6-3.6-2.5-5.5-3.8C659.6,394.4,659.8,395.2,660,396z M616.1,297.5c0.5-0.1,1-0.2,1.5-0.3c-2.3-12.6-4.7-25.1-7-37.7
			c-0.4,0.1-0.8,0.1-1.2,0.2C611.7,272.4,613.9,285,616.1,297.5z"/>
		<path class="st0" d="M361,459.8c2.4,0.7,4.8,1.4,7.2,2.1c-0.1-0.6-0.2-1.3-0.4-1.9c1.8-0.5,3.7-1.7,5.4-1.5
			c13.1,1.4,24.7-4,37.3-6.9c-15.4-11.7-15.4-11.7-16.9-17c2,0.7,3.8,1.3,5.2,1.8c-2.9-4.4-7.3-8.5-8.1-13.2
			c-1.3-7.4-0.8-15.3,0.1-22.8c1.8-14.2,10-19.3,24-16.1c1.2,0.3,2.6,0,4-0.1c6.1-0.5,12.3-0.9,18.4-1.4c2.7-0.2,5.6,0.3,8.1-0.5
			c13.1-4.7,26.4-4.7,39.8-1.7c4.1,0.9,7.7,3.5,11.7-0.9c3.9-4.3,3.1-8.4,0.9-12.9c-0.1-0.2,0.3-0.7,0.6-1.3
			c5.7-0.3,10,2.2,13.3,6.7c3.2,4.3,2.8,9.1,0.2,13.3c-2.7,4.5-5.6,9.3-9.4,12.7c-13.3,11.6-27,22.7-40.6,33.9
			c-3.5,2.9-7.4,5.4-11.1,8.1c-0.2-1.6,0.2-2.4,0.8-3c6.8-5.6,13.8-11,20.4-16.9c7.2-6.5,16.9-11,18.4-23c-11.2,6-22.4,11.6-33,18
			c-3.5,2.1-6.6,6.2-8.2,10.1c-2.4,6.1-3.3,12.9-5.1,19.3c-0.4,1.3-1.6,3-2.8,3.4c-7.9,2.9-15.7,6.9-23.8,7.7
			c-11,1.2-20.3,5.4-29.4,10.9c-3.7,2.2-4.6,4.4-3.2,8.6c0.9,2.7,0.9,7.7-0.7,8.8c-3.1,2.1-7.8,3.5-11.5,2.9
			c-10.3-1.7-20.4-4.8-30.7-7c-6.3-1.3-10.7-4.3-13.3-10.2c-4.4-10.3-1-20.1,2.4-29.7c2.1-6.1,3.6-12.8,11.3-17.7
			c-2.9,6.8-5.2,12.1-7.4,17.3c-3.5,7.9-6.2,16-4.4,24.8c1.2,6.1,5.3,9.5,11.4,10c6.6,0.5,13.3,0.8,19.9,0.8c1.4,0,2.7-1.8,4.1-2.8
			c-0.3-0.5-0.6-1.1-0.9-1.6c-3.2,0.2-6.6,1-9.7,0.4c-13.6-2.5-16.9-8.6-19.4-23.5c-0.5-2.7-0.7-5.4-1-8.1c2.1,0.8,5.2,1,6.2,2.5
			c1.8,2.6,2,6.2,3.3,9.2c1.8,4.3,4,8.4,6.1,12.5c0.4-0.6,0.9-1.1,1.3-1.7C355,461.5,358,460.7,361,459.8L361,459.8z M410.6,423.8
			c-1.6-3.4-2.6-6.9,3.3-7.7c1-0.1,2.6-3.3,2.2-4.4c-2.2-6.3-1.1-11.8,3.3-16.8c-5.9,2.4-7,7.2-6.2,14.1c-2.3-1.8-3.7-2.9-5.5-4.3
			c-0.6,2.5-1.1,4.8-1.7,7c-0.5,0.2-1.1,0.4-1.6,0.5c-1.3-2.6-2.6-5.1-4.2-8.4c0.4,5.1-2,10.1,2.4,14.5c0.6,0.6,0.9,1.7,0.9,2.5
			c-0.2,7.5,4.3,13,13.6,14.8C414.6,431.2,412.4,427.6,410.6,423.8z"/>
		<path class="st0" d="M411.3,734.5c-8.9-2-17.7-4.2-26.6-6.1c-13.6-2.9-13.8-2.8-12.7-16.5c0.2-2.3,1.9-5.1,3.8-6.5
			c6.4-4.9,13.4-8.9,19.6-13.9c3.5-2.9,6-7.1,8.9-10.7c-0.4-0.5-0.8-1.1-1.2-1.6c-9.5-1-18.9-1.9-28.4-3
			c-7.7-0.9-10.6-3.7-11.9-10.5c-0.9-4.7,0.1-7.8,4.6-10.1c7.7-3.9,15.1-8.3,22.6-12.5c1.9-1.1,3.6-2.4,5.3-3.6
			c-0.3-0.5-0.6-1.1-1-1.6c-9.3,4.7-18.7,9.4-28,14.1c-1.7,0.9-3.4,2.2-5.2,2.7c-1.2,0.3-2.6-0.4-3.9-0.6c0.7-1.2,1.2-2.8,2.2-3.4
			c6.5-3.3,13.1-6.3,19.6-9.4c1.4-0.7,2.6-1.5,5.6-3.2c-3.3-0.4-4.9-0.8-6.5-0.8c-15.3,0-30.6,0.2-45.9,0c-4.7,0-6.8,1.4-6.8,6.4
			c0.2,11,0.1,22-0.1,32.9c-0.1,4.7,1.5,6.5,6.6,6.3c20-0.7,40-1.1,59.9-1.4c2,0,4,1.3,6.1,2c-1.4,1.7-2.4,3.9-4.1,5.1
			c-6,4.3-12.2,8.7-18.6,12.4c-2.8,1.6-6.5,1.8-9.7,2.6c-0.2-0.7-0.4-1.4-0.6-2c6.2-4.2,12.5-8.4,20.3-13.6c-3.2-0.5-4.8-1-6.3-1
			c-15.5,0.4-30.9,0.9-46.4,1.2c-3.9,0.1-5.8,1.8-5.8,5.7c0,12.4-0.3,24.7,0,37.1c0,1.6,2.8,4.5,4.4,4.5c26.1,0.6,52.1,0.8,78.2,1
			c0.5,0,1.1-0.4,1.6-0.6C411.1,735.4,411.2,735,411.3,734.5z"/>
		<path class="st0" d="M362.4,555.9c-1.5-0.5-1.9-0.9-2.2-0.8c-14.7,6.7-30.4,4-45.8,4.6c-9.2,0.4-18.4,1-27.5,0.7
			c-2.4-0.1-4.8-3.1-7.8-4.2c2.3,3,4.5,6.2,6.9,9.1c12.2,14.8,24.7,29.3,36.5,44.5c2.7,3.5,3.6,8.9,3.9,13.6c0.8,11,0.4,11,11.7,11
			c17.4-0.1,34.9-0.1,52.3-0.3c2.2,0,4.3-0.6,6.5-0.9c0.1-0.7,0.1-1.4,0.2-2.1c-3-0.7-6-1.7-9.1-2.1c-8.2-1.2-15.8-3.2-21.6-9.8
			c-2.7-3.1-6-5.7-9.1-8.5c3.6-2,7.1-4.3,10.9-5.9c6.2-2.6,12.6-4.7,18.9-7.1c-0.1-0.8-0.3-1.5-0.4-2.3c-4.9,0-9.9-0.1-14.8,0
			c-11.5,0.3-23.1,0.7-34.6,1.1c-5.7,0.2-11.3,0.9-17,0.9c-2.1,0-4.3-1.4-6.4-2.1c0.2-0.6,0.3-1.3,0.5-1.9c10.1-0.7,20.3-1.3,30.4-2
			c0.2-0.6,0.3-1.2,0.5-1.8c-5.4-4.2-10.9-8.4-16.8-13C339,568.3,352.9,566.3,362.4,555.9z"/>
		<path class="st0" d="M344.9,553.8c-4.3-1.6-8.5-3.3-12.8-4.8c-3.7-1.3-7.5-2.3-11.3-3.4c-3.1-0.9-6.8-1.2-6.9-5.8
			c-0.1-4.3,0.1-8.1,4.8-10.2c7.1-3.2,14.1-6.9,21-10.4c1.5-0.7,2.9-1.6,4.5-2.6c-3.8-3.3-42.4-3.4-56.9,0.7
			c6.5,0.2,13,0.4,19.6,0.5c6.6,0.1,13.2,0,20.1,1.1c-8,3.2-16.1,6.6-24.2,9.7c-1,0.4-2.7-0.2-3.7-0.8c-4.7-2.7-19.8-0.5-22.9,4.1
			c-1.4,2-1.4,5.2-1.4,7.8c0.1,8.1,8.1,15.8,16.1,15.8c17.8,0,35.6,0,53.4,0C344.6,554.8,344.7,554.3,344.9,553.8z"/>
		<path class="st0" d="M323.8,434.8c-6.4,3.9-11.7,7.1-17,10.4c-9,5.6-17.9,11.2-26.9,16.9c-1.2,0.7-2.8,1.4-3.2,2.5
			c-1.2,3.4-2.5,7-2.4,10.5c0,1,4.7,1.8,7.2,2.7c0.7,0.2,1.5,0.2,2.3,0.9c-2.4,0.2-4.8,0.4-7.2,0.5c0,0.4,0.1,0.9,0.1,1.3
			c16.7,0,33.3,0,50,0c0.1-0.5,0.2-1,0.4-1.5c-1.2-0.5-2.4-1.3-3.7-1.5c-2.1-0.3-4.3-0.1-6.5-0.1c-9.5,0.1-9.6-0.3-6.2-9
			C315.1,457.8,319.1,447.1,323.8,434.8z"/>
		<path class="st0" d="M318.2,483.2c-4.6,0-9.2-0.1-13.8,0c-8.2,0.1-16.5,0.3-24.7,0.5c-4.3,0.1-6.2,2.3-6,6.8
			c0.2,5.5-0.3,11,0.2,16.4c0.1,1.7,2.3,4.6,3.7,4.6c21.5,0.9,43,1.4,64.5,2c0-0.8,0.1-1.6,0.1-2.4c-8.4-0.2-16.8-0.6-25.2-0.7
			c-8.5-0.1-7.8,0-8.7-8.4c-0.9-8.8,2.5-14.1,11.3-16.8C319.1,484.6,318.6,483.9,318.2,483.2z"/>
		<path class="st0" d="M196.4,523.2c-1.6,2.3-3.6,4.4-4.7,6.9c-9.3,21-18.5,42-27.8,63c-4.7,10.8-9.7,21.5-14.2,32.3
			c-1.3,3.2-2.1,6.8-2,10.2c0.4,45.1,0.9,90.2,1.4,135.3c0.1,4.1,0.8,8.2,2.1,12.3c0.4-4.4,1.2-8.8,1.2-13.2
			c0.2-38.6,1-77.3,0.1-115.9c-0.4-16.3,4-30.7,10.2-45.2c12-28.1,23.3-56.5,34.9-84.8C197.3,523.9,196.8,523.5,196.4,523.2z"/>
		<path class="st0" d="M263.4,493.6c0,18.9,0,37.7,0,56.6c0.5,0,1,0,1.4,0c0-24.9,0-49.8,0-75.2c-4.3,0.9-5.1,3.6-5.2,7
			c-0.4,18.6-1,37.2-1.3,55.8c-0.2,12.4-2.2,14.7-15.6,15.8c-0.2-1.1-0.6-2.2-0.6-3.3c-0.5-14.3-0.7-28.6-1.4-42.9
			c-0.2-4.7,1-8.3,3.9-11.8c3.2-3.8,6.1-7.8,10-12.9c-2.9,0.2-4.4-0.2-5,0.3c-5.8,5.5-12.3,11-12.3,19.7
			c-0.1,16.1,0.6,32.1,1.2,48.2c0.1,2.5,1.2,5.5,2.7,7.5c15.4,19.8,30.9,39.5,46.5,59.2c1.1,1.4,2.7,2.5,4.1,3.7
			c0.6-0.5,1.2-1.1,1.9-1.6c-16.6-20.3-33.2-40.7-50.3-61.8c4.9-1.8,9-3.6,13.2-4.6c1.1-0.3,3.1,1.3,4.1,2.5
			c6.7,7.9,13.3,16,19.9,23.9c1.4,1.6,2.8,3.2,5.3,4.1c-1.8-2.7-3.5-5.5-5.4-8.1c-5.8-7.7-11.9-15.1-17.5-22.9
			c-1.4-2-1.9-5.1-1.9-7.7c-0.2-17.2-0.1-34.5-0.1-51.7C261.9,493.5,262.7,493.6,263.4,493.6z"/>
		<path class="st0" d="M361,459.8c4.4-1.9,9-3.6,13.2-5.9c1.4-0.8,1.8-3.3,2.6-4.9c1.5,1.2,3.7,4.2,5.3,4c4.5-0.7,8.9-2.8,13.2-4.6
			c0.3-0.1-0.1-2.9-0.9-4c-1.9-3-4.1-5.7-6.3-8.5c-4.3-5.5-5.6-5.6-11.4-0.7c-0.7-10.3-1.4-20.5-2.1-31.3c-5.5,2.6-8.4,5.7-7.9,11.2
			c0.5,5.3,1,10.5,1.7,15.7c1,7.5,0.5,8.4-7.8,11.8c-1.3-6.1-2.5-12.2-4-18.1c-0.4-1.4-1.7-2.6-2.6-3.9c-0.9,1.5-2.6,3.1-2.5,4.5
			c0.7,10.1,0.1,20.5,5.1,29.8C357.7,456.7,359.5,458.2,361,459.8C361,459.9,361,459.8,361,459.8z"/>
		<path class="st0" d="M253.8,742.4c-3.8,3.9-7.6,7.8-11.4,11.7c0.1,0.2,0.3,0.4,0.4,0.6c5-4.1,10.1-8.1,15-12.2
			c11.4-9.6,22.6-19.4,34.1-28.9c1.6-1.3,5.1-2.1,6.7-1.3c4.2,2.3,10,3.3,10.3,10c0.7,18.4,1.6,36.8,2.3,55.2
			c0.4,10,0.1,20.1,1.5,29.9c0.7,5.1,4.3,9.7,6.6,14.6c0.6-0.3,1.2-0.5,1.8-0.8c-0.1-0.7,0-1.6-0.4-2.1c-5.8-6.9-5.3-15.2-5.6-23.4
			c-1-25.6-1.8-51.3-4-76.9c-1.7-19.8-1.2-39.7-2-59.5c-0.3-7.4-1-14.7-1.5-22.1c-0.6,0-1.1,0-1.7,0c0,23.8,0,47.6,0,73.5
			c-6.2-6.6-10.1-3.8-14.3-0.4c-9,7.2-18.2,14.2-27.3,21.2C260.9,735.2,257.3,738.8,253.8,742.4z"/>
		<path class="st0" d="M299.2,726.6c-6.3,4.8-12.7,9.6-19,14.5c-26.3,20.3-52.7,40.6-78.9,61.2c-2.5,2-4.4,5.4-5.5,8.5
			c-2.8,8.2-5.1,16.6-7.5,25c0.6,0.2,1.1,0.4,1.7,0.6c2.6-7,4.9-14.1,8.1-20.9c1.8-3.9,4.3-8,7.6-10.5
			c27.8-21.3,56.1-42.1,83.9-63.4c4.6-3.5,7.9-8.7,11.7-13.1C300.6,727.9,299.9,727.3,299.2,726.6z"/>
		<path class="st0" d="M461.7,826.3c0.2-1.5,0.5-3,0.5-4.5c0.5-25.3,0.9-50.5,1.6-75.8c1-33.7,2.3-67.3,3.4-101c0-1.2,0.5-2.6,0-3.5
			c-0.9-1.7-2.4-3-3.7-4.5c-0.9,1.5-2.4,3-2.4,4.5c-0.2,14.5-0.2,29-0.3,43.5c-0.3,44.5-0.7,89-1,133.4c0,2.6,0,5.3,0,7.9
			C460.4,826.3,461.1,826.3,461.7,826.3z"/>
		<path class="st0" d="M395.2,474.7c4.4-0.6,9.2-0.3,13.3-1.8c20.4-7.7,39.2-18.5,57.7-30c9.1-5.6,15.5-12.3,16.9-20.5
			c-4.6,3.6-9.2,7.2-13.7,10.8c-3.6,2.8-7.2,5.8-11,8.4c-4.7,3.4-9.6,6.5-14.4,9.8c-1.1,0.7-2.3,1.9-3.5,2
			c-12.7,0.4-23.7,6.7-35.4,10.6c-4.1,1.4-7.5,4.9-11.2,7.5C394.4,472.6,394.8,473.6,395.2,474.7z"/>
		<path class="st0" d="M253.8,742.4c3.5-3.6,7-7.2,10.5-10.8c-10.3,7.4-20.7,14.8-30.9,22.3c-18.9,14-37.7,28.1-56.4,42.3
			c-3.7,2.8-6.8,3.2-11.2,1.4c-15.9-6.4-16.5-5.4-15,11.7c1.4,16.4,1.9,32.9,2.8,49.3c0.2,2.9,0.9,5.7,1.3,8.6c0,0,0,0,0,0
			c0.4-19.7,0.9-39.5,1.3-59.2c0.1-2.9,0-5.8,0-10.1c4.4,1.5,7.7,3.1,11.2,3.7c2.5,0.4,6,0.5,7.8-0.8c20.7-15.4,41.2-31.1,61.8-46.7
			C242.5,750,248.2,746.3,253.8,742.4z"/>
		<path class="st0" d="M640.3,419c-4.9-5.1-9.7-8.3-16.7-5.5c-27.9,10.9-55.9,21.4-83.9,32.1c-1.4,0.5-2.6,1.5-3.7,2.9
			C570.3,437.2,603.8,423.1,640.3,419z"/>
		<path class="st0" d="M321.9,753c2.9-12.1,1.8-125.3-1.5-130.4c-0.9,3-2,4.9-2,6.9c0.7,31.1,1.5,62.3,2.2,93.4
			c0.2,7.6,0.1,15.3,0.3,22.9C321.1,748.2,321.6,750.6,321.9,753z"/>
		<path class="st0" d="M442.5,361c-11.2,2.8-22.5,5.1-33.4,8.7c-17.6,5.9-33.3,15.3-46.4,28.8c-3.3,3.3-7,6.3-10.5,9.4
			c0.5,0.6,0.9,1.1,1.4,1.7c8.6-7.1,16.7-15.1,25.9-21.1c9.5-6.3,20-11.5,30.6-15.7c10.6-4.2,21.8-6.7,32.8-10
			C442.8,362.1,442.6,361.6,442.5,361z"/>
		<path class="st0" d="M293.4,624.9c0.6,26.3,1.2,52.7,1.8,79c1.1,0,2.2-0.1,3.3-0.1c0.2-26.4-2-52.6-3.4-79
			C294.5,624.9,294,624.9,293.4,624.9z"/>
		<path class="st0" d="M245.3,477.6c-10.5,18.1-28.8,28.1-43.2,42.3C223,512.6,236,497,245.3,477.6z"/>
		<path class="st0" d="M291.6,592.8c6.8,10.3,17.8,18.7,14.1,33.7c0.7-0.2,1.3-0.4,2-0.7c0.2-2.8,0.5-5.6,0.8-9.5
			c3,2.4,5.5,4.4,8,6.4c0.4-0.3,0.8-0.7,1.1-1c-8.2-10-16.3-20-24.5-30C292.6,592.1,292.1,592.5,291.6,592.8z"/>
		<path class="st0" d="M483.8,424.6c3.4,2.5,5.5,5.2,7.4,5.1c1.9-0.2,3.6-3.2,5.4-5c-2-2-3.7-4.7-6.1-5.7
			C489.5,418.6,487,421.8,483.8,424.6z"/>
		<path class="st0" d="M476.4,621.2c-2.9-4.1-5.8-8.1-9-12.8c1.8-0.5,2.8-0.7,5.1-1.4c-4-2-7-3.4-10-4.9c0,0-0.5,0.3-0.5,0.3
			c2.1,4.3,4.1,8.5,6.2,12.8c0.8,1.2,1.5,2.3,2.3,3.5C472.5,619.6,474.4,620.4,476.4,621.2z"/>
		<path class="st0" d="M428.1,515.7c4.6-4.1,9.2-8.2,13.6-12.5c1.1-1,1.1-3.1,1.9-5.6C433.4,500.7,432,509.4,428.1,515.7z"/>
		<path class="st0" d="M483.7,362.6c2.1-2.1,3.7-3.7,5.3-5.4c-1.4-1.2-3.5-3.8-4.2-3.5c-2.6,1.2-4.7,3.4-7,5.2
			C479.5,359.9,481.1,360.9,483.7,362.6z"/>
		<path class="st0" d="M323.2,794.3c0-8.5,0-17.1,0-25.6c-0.4,0-0.9,0-1.3,0c0,8.6,0,17.1,0,25.7
			C322.3,794.4,322.8,794.3,323.2,794.3z"/>
		<path class="st0" d="M810,399c39.1-47.8,77.7-94.8,116.2-141.9c-0.6-0.5-1.2-1.1-1.8-1.6c-3.4,3.6-6.6,7.4-10.1,10.9
			c-17.3,17.5-34.6,35.2-52.1,52.5c-19.8,19.5-39.9,38.8-59.9,58.1c-2.4,2.3-2.8,4.2-0.9,7.1C804.3,388.8,807,393.8,810,399z"/>
		<path class="st0" d="M779.6,621.3c3.7-19.7,13.3-37.9,12.8-58.7c-0.6-25.1-0.3-50.2-0.5-75.3c0-4.1-0.8-8.2-1.2-12.2
			c-0.7,0-1.3,0-2,0c-0.2,2.4-0.5,4.7-0.5,7.1c0,27.7,0.4,55.3,0.1,82.9c-0.1,8.3-1.9,16.7-3.5,24.9c-2,10.3-4.7,20.5-7.2,30.8
			C778.2,621,778.9,621.2,779.6,621.3z"/>
		<path class="st0" d="M784.1,360.9c39.9-28,79.8-55.9,119.7-83.9c-0.3-0.5-0.7-1-1-1.5c-40.2,27.5-80.3,55.1-120.5,82.6
			C782.9,359.1,783.5,360,784.1,360.9z"/>
		<path class="st0" d="M694.4,294.3c6.6,3.7,13.2,7.5,19.9,11.1c11.2,6,22.7,11.6,33.6,18.1c4.6,2.7,8.1,7.3,11.8,11.2
			c4.8,5.1,9.3,10.5,14.6,15.2c-9-10.6-14.3-24.3-28-30.9c-15.4-7.4-30.2-15.7-45.4-23.6c-1.9-1-3.8-1.7-5.7-2.6
			C694.9,293.3,694.6,293.8,694.4,294.3z"/>
		<path class="st0" d="M688.4,579.5c8.1-14.9,16.1-29.8,24.2-44.6c-0.5-0.3-1-0.6-1.6-0.9c-8.4,14.7-16.7,29.4-25.1,44
			C686.7,578.6,687.6,579.1,688.4,579.5z"/>
		<path class="st0" d="M737.7,559.9c1.4-10.1,5.7-19.9,4.9-30.3c-0.7-0.1-1.4-0.2-2.2-0.3c-1.5,10.1-2.9,20.3-4.4,30.4
			C736.6,559.7,737.2,559.8,737.7,559.9z"/>
		<path class="st0" d="M775.2,632.7c-4.6,6.9,0.4,12.3,3.3,18.1C777.4,644.8,776.3,638.9,775.2,632.7z"/>
		<path class="st0" d="M550.4,269.3c4.3,2.8,8.6,5.6,13,8.4c0.4-0.7,0.9-1.5,1.3-2.2c-4.7-2.2-9.3-4.3-14-6.5
			C550.7,268.9,550.4,269.3,550.4,269.3z"/>
		<path class="st0" d="M206.8,903.8c5.1-15.4,10.3-30.8,15.4-46.2c2.3-6.9,4.3-13.8,6.5-20.7c1.7-5.3,3.6-5.9,7.9-2
			c14.2,13,28.2,26.1,42.3,39.1c23.5,21.7,47,43.3,70.5,65c13.1,12.1,26.1,24.3,39.2,36.4c1.6,1.5,3.4,2.8,5.1,4.2
			c0.4-0.5,0.9-0.9,1.3-1.4c-3.4-3.3-6.6-6.8-10.1-10c-20-18.5-40-37-60-55.5c-29.3-27.2-58.6-54.4-87.9-81.6
			c-4.2-3.9-8.2-3.4-9.6,1.5c-7,22.9-13.7,45.8-20.4,68.7c-0.2,0.7-0.1,1.6-0.1,2.3L206.8,903.8z"/>
		<path class="st0" d="M206.7,903.7c-2.5,6.6-5,13.1-7.6,19.7c0.8,0.3,1.7,0.5,2.5,0.8c1.7-6.8,3.4-13.6,5.1-20.4
			C206.8,903.8,206.7,903.7,206.7,903.7z"/>
		<path class="st0" d="M618.2,343.2c-0.2-0.9-0.1-3.1-1.2-4.4c-1.8-2.2-4.4-2.9-6,0.5c-1.2,2.5-1.7,5.3-3.2,7.5
			c-2.2,3.2-1.8,6.2,1.6,6.9c2.3,0.5,5.6-1.4,7.5-3.2C618.2,349.4,617.7,346.4,618.2,343.2z"/>
		<path class="st0" d="M603.7,346.5c1.3-6.7,2.7-12.4-1.5-18.1C597.5,335.1,597.9,341.4,603.7,346.5z"/>
	</g>
</g>
</svg>
